<?xml version="1.0" encoding="iso-8859-1"?>
<!-- Generator: Adobe Illustrator 19.0.0, SVG Export Plug-In . SVG Version: 6.00 Build 0)  -->
<svg version="1.1" id="Capa_1" xmlns="http://www.w3.org/2000/svg" xmlns:xlink="http://www.w3.org/1999/xlink" x="0px" y="0px"
	 viewBox="0 0 480 480" style="enable-background:new 0 0 480 480;" xml:space="preserve">
<path style="fill:#FC88A1;" d="M240,16.004l-232,192v256h464v-256L240,16.004z"/>
<path style="fill:#FFF3C9;" d="M72,32.004h336v432H72V32.004z"/>
<path style="fill:#FDCD74;" d="M240,400.004l-232-192v256h464v-256L240,400.004z"/>
<path style="fill:#FC88A1;" d="M239.6,280.004l-81.96-82.248c-16.376-16.442-16.351-43.037,0.056-59.448
	c16.429-16.431,43.068-16.432,59.499-0.003c1.408,1.408,2.714,2.914,3.909,4.507L240,168.004l18.944-25.256
	c13.917-18.558,40.242-22.32,58.8-8.403c1.592,1.194,3.097,2.5,4.504,3.907c16.403,16.401,16.404,42.994,0.003,59.397
	c-0.02,0.02-0.039,0.039-0.059,0.059L239.6,280.004z"/>
<path style="fill:#FDC05E;" d="M472,208.004l-232,192l-1.936-1.6l-78.256,65.6H472V208.004z"/>
<path d="M233.928,285.652c1.499,1.503,3.533,2.349,5.656,2.352c2.118,0,4.149-0.84,5.648-2.336l82.608-82.296
	c19.543-19.509,19.571-51.167,0.062-70.711s-51.167-19.571-70.711-0.062c-1.674,1.671-3.227,3.458-4.648,5.349L240,154.668
	l-12.496-16.656c-16.554-22.152-47.932-26.689-70.083-10.135s-26.689,47.932-10.135,70.084c1.439,1.925,3.014,3.744,4.714,5.443
	L233.928,285.652z M163.352,144.004c6.391-6.39,15.059-9.979,24.096-9.976c0.8,0,1.6,0,2.4,0.08
	c9.852,0.699,18.916,5.641,24.84,13.544l18.912,25.152c2.908,3.535,8.131,4.042,11.666,1.134c0.414-0.34,0.794-0.72,1.134-1.134
	l18.936-25.256c11.181-15.091,32.479-18.261,47.571-7.08c15.091,11.181,18.261,32.479,7.08,47.571
	c-1.044,1.409-2.195,2.734-3.443,3.966l-76.928,76.656l-76.304-76.584C150.119,178.761,150.136,157.297,163.352,144.004
	L163.352,144.004z"/>
<path d="M479.032,204.332c-0.46-0.913-1.093-1.728-1.864-2.4l-0.064-0.088L416,151.276V32.004c0-4.418-3.582-8-8-8H262.216
	L245.104,9.836c-2.961-2.453-7.247-2.453-10.208,0l-17.112,14.168H72c-4.418,0-8,3.582-8,8v119.272l-61.104,50.56l-0.064,0.088
	c-0.771,0.672-1.404,1.487-1.864,2.4c-0.107,0.208-0.204,0.422-0.288,0.64c-0.429,0.957-0.66,1.991-0.68,3.04v256
	c0,4.418,3.582,8,8,8h464c4.418,0,8-3.582,8-8v-256c-0.021-1.046-0.252-2.077-0.68-3.032
	C479.236,204.754,479.139,204.54,479.032,204.332z M459.448,208.004L416,243.964v-71.92L459.448,208.004z M80,40.004h320v217.2
	l-160,132.4l-160-132.4V40.004z M64,243.964l-43.448-35.96L64,172.044V243.964z M16,456.004V225.012l50.896,42.12l168,139.04
	c2.961,2.453,7.247,2.453,10.208,0l168-139.04L464,225.012v230.992H16z"/>
<g>
</g>
<g>
</g>
<g>
</g>
<g>
</g>
<g>
</g>
<g>
</g>
<g>
</g>
<g>
</g>
<g>
</g>
<g>
</g>
<g>
</g>
<g>
</g>
<g>
</g>
<g>
</g>
<g>
</g>
</svg>
