<?xml version="1.0" standalone="no"?>
<!DOCTYPE svg PUBLIC "-//W3C//DTD SVG 20010904//EN"
 "http://www.w3.org/TR/2001/REC-SVG-20010904/DTD/svg10.dtd">
<svg version="1.0" xmlns="http://www.w3.org/2000/svg"
 width="584.000000pt" height="584.000000pt" viewBox="0 0 584.000000 584.000000"
 preserveAspectRatio="xMidYMid meet">

<g transform="translate(0.000000,584.000000) scale(0.100000,-0.100000)"
fill="#000000" stroke="none">
<path d="M0 5630 c0 -133 4 -210 10 -210 6 0 10 -7 10 -15 0 -8 -4 -15 -10
-15 -13 0 -13 -46 0 -71 7 -13 7 -19 0 -19 -6 0 -10 -34 -10 -87 0 -66 4 -91
17 -105 14 -16 14 -18 1 -18 -14 0 -16 -22 -15 -165 0 -91 4 -165 9 -165 4 0
8 -8 8 -17 0 -15 -2 -16 -10 -3 -8 13 -10 13 -10 -2 0 -9 6 -19 12 -22 10 -5
10 -7 1 -12 -15 -7 -17 -34 -3 -34 6 0 10 -7 10 -15 0 -8 5 -15 10 -15 6 0 10
-5 10 -10 0 -7 -6 -7 -20 0 -19 10 -20 8 -19 -32 1 -25 4 -33 6 -19 l5 23 13
-25 c25 -49 14 -295 -13 -290 -9 2 -12 -367 -12 -1599 0 -899 4 -1598 9 -1593
14 16 155 224 169 250 7 13 24 33 37 43 14 11 25 22 25 25 0 3 12 19 26 34 14
15 30 38 35 50 5 14 18 23 36 25 15 2 27 8 26 15 -2 7 14 17 35 23 46 13 209
29 282 28 162 -3 207 1 213 21 4 16 0 18 -22 14 -14 -2 -35 -5 -46 -5 -11 -1
-25 -5 -32 -10 -6 -5 -14 -5 -17 0 -3 5 -40 7 -82 5 -56 -3 -81 0 -93 10 -21
18 -96 28 -110 14 -7 -7 -14 -2 -22 16 -7 15 -16 27 -21 27 -4 0 -8 6 -8 13 0
7 -8 17 -19 24 -18 12 -27 39 -36 120 -3 26 -1 43 5 43 13 0 13 37 1 42 -9 3
-25 153 -23 203 4 68 0 121 -8 129 -14 14 -12 66 3 66 9 0 9 2 1 8 -11 7 -14
38 -16 205 0 68 -4 77 -26 55 -9 -9 -12 -6 -12 14 0 37 10 58 27 58 8 0 11 5
8 11 -4 6 -13 8 -21 5 -15 -6 -20 9 -5 18 15 9 20 59 7 78 -8 14 -8 20 2 27
11 7 10 11 -3 24 -12 13 -14 21 -5 36 7 13 7 22 0 26 -13 8 -13 45 0 45 7 0 7
7 0 20 -6 11 -9 24 -6 29 3 4 1 22 -4 40 -5 19 -5 31 1 31 5 0 7 10 4 23 -12
58 -13 147 0 164 9 12 10 22 4 30 -12 14 -19 529 -8 560 5 13 4 25 -1 28 -6 4
-8 21 -6 40 2 19 0 35 -5 37 -5 2 -5 16 0 36 5 17 6 32 2 32 -3 0 -7 9 -7 20
0 11 5 20 10 20 6 0 7 3 0 10 -5 5 -8 50 -7 100 1 64 -2 90 -10 90 -8 0 -7 3
2 9 8 6 12 19 9 35 -3 15 -1 29 3 32 5 3 9 13 8 22 0 14 -2 13 -9 -3 -5 -12
-9 57 -9 170 -1 105 -3 321 -4 480 -2 160 0 298 5 307 4 9 5 19 0 22 -4 2 -7
122 -7 265 l0 261 -142 0 -143 0 0 -210z m39 -1412 c1 -48 0 -51 -14 -31 -14
19 -14 51 0 73 11 17 12 12 14 -42z m1 -62 c0 -3 -4 -8 -10 -11 -5 -3 -10 -1
-10 4 0 6 5 11 10 11 6 0 10 -2 10 -4z"/>
<path d="M1440 5253 c0 -324 -3 -868 -7 -1210 -3 -343 -4 -623 -1 -623 3 0 19
5 37 11 24 8 35 8 46 -1 12 -10 15 -7 20 17 7 29 20 64 37 97 6 11 10 39 10
63 -1 24 2 43 6 43 6 0 8 62 3 80 -1 3 -4 82 -7 175 -6 206 -5 182 -3 231 1
23 -2 69 -6 103 -5 42 -3 66 5 76 7 8 10 20 7 27 -4 8 -6 7 -6 -4 -1 -10 -5
-18 -11 -18 -5 0 -7 7 -4 15 3 8 7 45 7 82 2 59 5 68 22 72 38 7 47 41 11 41
-14 0 -38 11 -54 25 -16 13 -33 21 -37 17 -5 -4 -5 -1 -1 6 5 9 1 19 -12 28
-19 13 -19 24 -16 535 l3 522 33 4 c18 2 39 5 46 8 15 5 16 45 2 45 -7 0 -9
16 -7 40 2 22 0 40 -6 40 -5 0 -7 9 -4 20 5 18 0 20 -54 20 l-59 0 0 -587z"/>
<path d="M1789 5798 c-10 -426 -13 -1137 -5 -1145 3 -4 12 10 21 30 8 19 26
44 39 55 18 13 23 25 19 41 -3 12 -1 21 5 21 6 0 16 17 22 39 7 25 27 54 60
85 28 26 50 49 50 53 0 3 12 32 26 63 19 42 33 60 50 64 15 4 24 14 24 26 0
10 5 22 10 25 6 3 8 17 6 31 -3 13 -1 24 2 24 12 0 6 172 -6 202 -6 15 -7 28
-2 30 5 2 12 44 15 93 8 122 7 138 -8 147 -9 6 -9 12 1 29 8 13 10 25 4 31 -5
5 -6 29 -2 53 l7 45 -169 0 -168 0 -1 -42z"/>
<path d="M2358 5594 c-2 -135 0 -251 4 -257 17 -28 87 38 71 67 -3 4 -5 50 -5
102 1 54 -3 94 -8 94 -6 0 -10 11 -10 25 0 14 4 25 10 25 5 0 9 39 8 95 l-2
95 -33 0 -32 0 -3 -246z"/>
<path d="M2559 5828 c0 -7 -3 -83 -5 -168 -2 -85 -4 -168 -5 -185 -1 -16 2
-38 6 -47 4 -9 4 -22 0 -28 -3 -5 -2 -10 4 -10 17 0 21 35 25 248 3 169 2 202
-10 202 -8 0 -14 -6 -15 -12z"/>
<path d="M4555 5798 c-4 -24 -9 -81 -11 -128 -2 -47 -6 -134 -8 -195 -3 -60
-10 -135 -16 -165 -6 -30 -13 -87 -15 -126 -2 -39 -9 -91 -14 -115 -15 -65
-14 -110 3 -103 11 4 12 -5 4 -48 -4 -29 -6 -62 -3 -74 2 -11 -1 -29 -9 -39
-12 -16 -15 -14 -33 26 -20 41 -21 60 -19 274 3 244 12 378 28 409 6 10 11 53
13 95 1 42 1 60 -1 41 -3 -19 -7 -46 -10 -60 -6 -23 -7 -24 -14 -5 -8 20 -9
20 -9 -1 -1 -11 -8 -119 -16 -239 -9 -120 -13 -226 -10 -234 3 -8 3 -56 -1
-106 l-6 -92 -32 29 c-17 16 -43 32 -58 35 -21 4 -29 13 -33 37 -12 59 -103
136 -162 136 -21 0 -33 5 -33 13 0 34 -98 87 -162 87 -15 0 -33 8 -40 19 -16
22 -90 61 -115 60 -11 0 -13 -3 -5 -6 6 -2 12 -9 12 -14 0 -17 -27 -9 -53 15
-27 25 -143 73 -153 64 -3 -3 2 -13 11 -22 10 -10 12 -16 5 -16 -12 0 -10 -19
7 -74 3 -12 1 -16 -6 -12 -6 4 -11 3 -11 -3 0 -5 5 -13 10 -16 6 -3 10 -14 10
-23 -1 -13 -6 -10 -25 11 -14 16 -30 25 -35 22 -6 -4 -8 -11 -5 -16 4 -5 1 -9
-5 -9 -7 0 -9 7 -6 16 3 9 6 19 6 24 0 4 8 7 17 6 24 -2 28 30 9 59 -10 16
-27 25 -44 26 -17 1 -20 3 -9 6 9 2 17 8 17 12 0 13 -90 53 -106 47 -8 -3 -25
-1 -39 4 -14 5 -25 7 -25 4 0 -11 29 -34 44 -34 9 0 16 -7 16 -15 0 -8 -7 -15
-15 -15 -8 0 -15 4 -15 9 0 5 -10 11 -22 13 -14 2 -25 13 -29 28 -4 14 -7 19
-8 13 -1 -7 -7 -13 -15 -13 -8 0 -17 6 -19 13 -4 9 -8 8 -16 -3 -7 -10 -14
-11 -18 -5 -5 6 -34 12 -65 13 -50 3 -58 1 -59 -15 0 -14 -2 -15 -7 -3 -5 10
-22 15 -55 15 -27 0 -51 3 -53 7 -3 4 -11 5 -20 1 -13 -5 -40 -8 -95 -12 -9
-1 -20 -8 -23 -17 -3 -8 -2 -13 2 -10 4 2 8 -10 8 -27 1 -18 -1 -24 -3 -14 -5
19 -18 22 -28 7 -9 -15 -27 -1 -21 16 4 9 -2 14 -15 14 -15 0 -19 -5 -14 -19
3 -12 0 -21 -10 -25 -8 -3 -15 -12 -15 -21 0 -21 17 -19 23 3 4 16 5 16 6 0 0
-10 6 -18 12 -18 7 0 18 -8 25 -17 12 -17 13 -16 14 7 0 24 1 24 13 5 7 -11
14 -31 14 -45 1 -14 -1 -19 -4 -12 -3 6 -11 12 -19 12 -20 0 -17 -18 11 -70
26 -49 28 -46 25 53 -2 61 0 67 19 67 11 0 23 -5 26 -10 5 -8 11 -7 21 1 11 9
14 8 14 -5 0 -9 5 -16 10 -16 6 0 10 9 10 20 0 11 5 20 10 20 6 0 10 -6 10
-12 0 -7 3 -23 6 -34 5 -19 1 -22 -30 -26 -20 -2 -37 -1 -39 2 -2 3 -3 0 -1
-6 1 -6 -1 -29 -6 -50 -6 -24 -5 -43 0 -48 7 -7 10 -2 10 11 0 26 11 35 29 24
19 -12 10 -56 -12 -55 -9 1 -17 -1 -18 -5 -5 -44 -3 -61 8 -57 21 9 25 -12 4
-24 -22 -11 -18 -40 5 -40 8 0 14 -11 15 -27 1 -28 1 -28 8 -4 9 32 28 38 34
11 4 -19 5 -18 5 2 0 61 2 73 11 59 5 -8 7 -20 4 -28 -8 -20 34 -16 46 5 6 9
11 13 11 7 0 -10 20 15 20 26 0 4 -9 9 -19 12 -12 3 -21 15 -23 31 -4 34 -22
38 -26 6 -2 -14 -8 -29 -13 -35 -7 -7 -8 -4 -4 7 5 12 0 17 -17 20 -13 2 -24
11 -26 22 -3 11 0 16 7 12 7 -5 11 2 11 18 0 34 13 39 43 16 14 -11 28 -17 30
-13 11 17 2 83 -11 88 -7 2 -10 10 -7 16 5 7 15 3 30 -11 15 -14 25 -18 30
-11 11 18 35 12 60 -15 27 -30 30 -40 15 -49 -8 -5 -7 -11 1 -21 9 -11 9 -21
1 -38 -8 -18 -7 -30 8 -54 10 -16 23 -33 29 -36 17 -11 13 -26 -6 -26 -16 -1
-16 -2 2 -16 20 -15 20 -15 0 -30 -18 -14 -20 -13 -28 13 -9 34 -45 79 -55 69
-4 -4 0 -13 9 -19 20 -15 13 -37 -11 -37 -13 0 -17 -5 -13 -20 3 -11 9 -20 14
-20 5 0 9 -5 9 -11 0 -5 -5 -7 -11 -4 -6 4 -13 -2 -16 -14 -6 -24 -23 -28 -23
-5 0 11 -6 14 -20 9 -14 -4 -22 -1 -27 11 -6 15 -7 14 -15 -5 -9 -26 -28 -19
-28 10 0 16 -3 18 -19 9 -11 -5 -26 -7 -35 -4 -11 4 -13 0 -9 -14 4 -16 0 -19
-21 -19 -25 0 -26 2 -24 39 1 22 6 42 10 44 11 7 10 54 0 54 -5 0 -7 14 -4 30
3 23 0 30 -12 30 -9 0 -16 6 -16 14 0 8 -9 24 -21 37 -19 23 -20 23 -10 2 19
-39 14 -49 -26 -48 -23 0 -39 5 -39 13 -1 6 -2 17 -3 22 -1 14 -31 13 -31 -1
0 -7 8 -18 18 -25 11 -9 13 -16 6 -21 -14 -10 -24 -63 -13 -63 5 0 9 11 9 25
0 29 15 33 29 8 9 -17 11 -16 30 1 21 19 21 19 21 -5 0 -13 7 -37 15 -53 12
-23 13 -31 3 -37 -7 -4 -9 -11 -5 -15 4 -4 2 -13 -3 -20 -15 -17 -50 -5 -50
17 0 22 -4 23 -31 9 -23 -13 -26 -35 -3 -26 18 7 50 -19 34 -29 -17 -11 -12
-35 7 -28 12 5 15 2 11 -13 -5 -22 18 -52 24 -32 3 8 12 8 36 0 18 -6 32 -7
32 -2 0 4 -5 10 -12 12 -6 2 -8 10 -4 16 15 24 40 -6 55 -69 18 -70 36 -85 46
-40 5 22 2 36 -9 47 -9 8 -16 26 -16 39 0 13 -5 27 -10 30 -13 8 -3 25 15 25
11 0 13 -8 9 -30 -6 -30 8 -43 20 -17 4 6 4 -2 1 -20 -2 -18 0 -35 5 -38 6 -3
10 -1 10 4 0 6 7 11 15 11 8 0 15 5 15 10 0 6 12 10 26 10 21 0 24 4 19 20 -9
27 5 25 34 -5 13 -14 27 -25 33 -25 5 0 7 -4 4 -9 -3 -5 1 -14 9 -21 22 -18
18 -35 -10 -54 -28 -18 -39 -21 -30 -6 6 10 -15 50 -26 50 -14 0 -19 -34 -7
-43 9 -6 7 -7 -8 -4 -18 4 -20 1 -16 -16 4 -17 1 -19 -16 -15 -12 4 -22 2 -22
-3 0 -5 -4 -9 -10 -9 -5 0 -10 11 -10 25 l0 24 -41 -18 c-47 -21 -75 -17 -91
12 l-10 20 -12 -21 c-6 -11 -14 -21 -18 -21 -5 -1 -8 -4 -8 -8 0 -4 16 -6 34
-5 39 4 54 -12 34 -35 -10 -13 -10 -17 0 -20 6 -3 12 -14 12 -26 1 -21 1 -21
15 -3 7 10 18 15 24 11 6 -3 11 2 12 12 0 11 3 13 6 5 2 -6 8 -10 13 -7 4 3
13 -9 19 -25 5 -17 13 -30 16 -30 3 0 3 4 0 10 -3 5 -8 23 -10 40 -2 21 1 30
11 30 8 0 14 5 14 12 0 6 7 4 18 -5 10 -10 23 -17 28 -17 5 0 9 -10 10 -22 0
-13 4 -32 9 -42 5 -11 5 -17 -1 -14 -5 3 -10 -9 -11 -28 -1 -19 3 -34 8 -34 5
0 9 -4 9 -9 0 -15 -43 -8 -62 9 -10 8 -18 26 -19 40 0 14 -3 19 -6 13 -2 -7
-12 -13 -20 -13 -12 0 -14 -7 -9 -30 3 -19 2 -29 -4 -25 -6 3 -7 -1 -4 -9 4
-11 0 -16 -10 -16 -9 0 -19 -1 -23 -1 -11 -2 -42 62 -43 89 0 12 -4 22 -10 22
-5 0 -10 7 -10 15 0 8 -4 15 -10 15 -5 0 -10 -9 -10 -20 0 -13 -5 -18 -15 -14
-20 8 -19 -1 2 -22 13 -13 14 -19 5 -22 -6 -2 -12 -13 -12 -24 0 -16 -5 -19
-24 -16 -31 6 -24 -17 7 -26 21 -6 21 -7 4 -20 -13 -10 -15 -21 -10 -46 5 -28
4 -32 -10 -27 -10 4 -17 1 -17 -6 0 -8 -3 -8 -9 2 -7 11 -10 10 -13 -5 -2 -10
6 -28 16 -38 13 -13 16 -21 8 -24 -7 -2 -10 -13 -6 -29 6 -23 5 -24 -14 -14
-21 11 -42 -2 -22 -14 6 -4 8 -14 6 -23 -3 -10 -1 -24 4 -31 14 -23 -6 -50
-32 -44 -19 5 -21 3 -10 -8 15 -16 16 -39 1 -39 -7 0 -18 8 -25 18 -12 15 -13
14 -4 -11 10 -30 5 -51 -10 -42 -5 3 -11 1 -14 -4 -4 -5 3 -12 14 -16 16 -5
19 -12 14 -43 -3 -20 -9 -41 -12 -47 -3 -5 1 -5 9 1 8 6 24 14 37 17 17 4 22
1 22 -14 0 -10 5 -19 10 -19 6 0 10 -9 10 -19 0 -11 5 -21 12 -23 8 -3 7 -18
-5 -53 -10 -27 -17 -66 -17 -88 0 -27 -4 -37 -12 -34 -7 2 -12 12 -12 21 2 17
-13 21 -32 8 -14 -8 -6 -72 8 -72 12 0 67 30 91 49 16 13 21 13 46 -2 36 -21
41 -21 41 -2 0 22 18 18 25 -5 3 -11 11 -20 16 -20 5 0 9 -12 9 -26 0 -14 4
-23 10 -19 6 3 10 -2 11 -12 0 -10 2 -27 4 -38 2 -11 -3 -34 -12 -52 -20 -43
-37 -30 -59 43 -17 61 -34 71 -34 22 -1 -31 -1 -32 -15 -14 -14 18 -15 19 -15
2 0 -12 -5 -16 -15 -12 -10 4 -19 -2 -25 -18 -9 -24 -33 -39 -45 -28 -4 4 -11
8 -16 8 -5 1 -11 2 -14 3 -3 0 3 10 13 21 34 36 47 69 34 82 -9 9 -12 8 -12
-6 0 -27 -39 -76 -59 -76 -26 0 -44 26 -39 54 3 15 -1 27 -13 34 -27 17 -42
-9 -34 -56 5 -30 2 -43 -14 -63 -18 -20 -22 -22 -31 -9 -8 12 -10 10 -10 -9 0
-13 -8 -30 -17 -37 -15 -11 -16 -15 -4 -23 7 -5 22 -6 32 -4 14 4 19 0 19 -13
0 -11 3 -30 6 -44 4 -18 3 -21 -4 -11 -16 23 -42 5 -42 -29 0 -30 -14 -41 -23
-17 -3 6 -6 -11 -6 -40 -1 -28 -5 -55 -11 -58 -13 -8 -13 -25 1 -25 6 0 13 9
16 19 6 23 43 36 43 15 0 -8 -4 -14 -10 -14 -5 0 -8 -12 -8 -27 1 -16 -1 -38
-6 -50 -6 -19 -3 -23 20 -29 25 -6 26 -8 10 -20 -10 -7 -15 -17 -11 -23 3 -6
0 -11 -6 -11 -7 0 6 -19 29 -43 40 -41 41 -44 26 -65 -8 -12 -11 -22 -7 -22 5
0 14 10 22 21 11 18 15 19 23 8 6 -10 8 -1 6 29 -5 63 16 46 23 -19 3 -30 6
-46 7 -37 1 10 8 15 15 12 7 -2 27 2 43 11 38 19 43 19 79 -10 33 -28 28 -45
-7 -21 -12 9 -30 16 -39 16 -17 0 -34 -26 -30 -47 1 -7 -5 -13 -12 -13 -8 0
-18 -7 -21 -15 -5 -15 6 -24 37 -29 26 -3 45 -26 40 -46 -6 -21 -37 -27 -48
-10 -9 14 -28 12 -22 -2 2 -7 -3 -22 -12 -32 -15 -18 -15 -19 9 -12 44 14 80
18 80 11 0 -4 -9 -14 -19 -23 -11 -10 -22 -27 -26 -39 -4 -17 -1 -22 15 -25
11 -2 21 -7 20 -13 0 -13 -100 -15 -100 -2 0 5 -8 17 -18 26 -10 9 -26 31 -35
49 -15 31 -15 36 0 59 11 16 23 23 35 20 10 -3 18 -1 18 3 0 24 -15 40 -46 50
-19 7 -32 16 -29 21 4 5 -1 9 -9 9 -9 0 -18 -11 -22 -25 -6 -26 -18 -32 -29
-15 -13 21 -25 9 -25 -24 0 -40 22 -66 56 -66 14 0 25 -6 25 -15 1 -8 3 -19 4
-25 1 -5 3 -17 4 -25 0 -8 9 -15 19 -15 11 0 6 -7 -15 -20 -18 -11 -40 -17
-49 -13 -15 5 -16 2 -11 -26 l7 -32 -40 32 c-42 34 -52 33 -56 -5 -2 -17 3
-26 17 -29 14 -4 19 0 19 15 0 28 18 13 36 -30 9 -23 13 -50 9 -70 -6 -31 -4
-33 15 -27 16 5 27 0 46 -22 30 -35 30 -41 2 -53 -13 -5 -19 -9 -14 -9 5 -1 3
-8 -4 -16 -6 -8 -9 -23 -5 -35 4 -14 1 -22 -12 -27 -26 -10 -63 -46 -63 -62 0
-11 5 -10 20 4 11 10 20 25 20 34 0 11 3 12 11 4 12 -12 -3 -51 -25 -65 -7 -5
-5 -8 6 -8 9 0 20 5 23 10 11 18 24 11 31 -15 8 -32 28 -27 32 8 2 15 11 29
22 32 10 3 21 16 24 29 5 19 11 23 28 18 15 -3 19 -2 14 7 -4 7 -15 11 -24 10
-10 -1 -25 1 -34 5 -14 6 -15 12 -7 28 6 11 8 25 6 33 -3 7 -1 31 5 54 l11 42
21 -21 c12 -11 27 -20 32 -20 10 0 13 -12 15 -51 0 -18 37 -15 52 5 6 8 10 7
14 -2 4 -10 10 -9 30 3 17 11 28 14 35 7 7 -7 4 -12 -8 -16 -11 -3 -28 -19
-39 -35 -10 -17 -31 -35 -45 -42 l-25 -12 30 -8 c17 -5 38 -6 48 -3 28 9 19
-9 -16 -32 -36 -24 -97 -39 -97 -24 0 6 -6 10 -14 10 -9 0 -17 -15 -21 -40 -5
-31 -14 -44 -36 -55 -16 -9 -29 -20 -29 -26 0 -6 -4 -7 -10 -4 -5 3 -10 1 -10
-4 0 -20 38 -12 68 14 17 14 34 25 40 25 5 0 13 7 16 16 9 24 19 10 11 -15 -3
-12 -13 -21 -21 -21 -8 0 -14 -4 -14 -10 0 -5 -6 -10 -13 -10 -8 0 -20 -12
-27 -26 -12 -21 -19 -25 -45 -20 -64 12 -95 12 -95 -2 0 -7 -5 -10 -10 -7 -14
8 -40 -13 -50 -40 -7 -18 -9 -16 -17 13 -11 43 -5 114 10 105 7 -4 8 0 4 11
-4 10 -7 20 -7 22 0 2 -4 4 -10 4 -5 0 -7 -7 -4 -15 4 -8 1 -15 -5 -15 -6 0
-11 4 -11 8 0 5 -13 9 -30 10 -38 1 -50 9 -50 33 0 11 -7 22 -15 25 -30 12
-53 70 -52 128 1 34 -2 55 -8 52 -30 -11 19 283 52 310 7 6 13 22 13 36 0 29
-35 105 -51 110 -8 3 -10 26 -5 81 4 42 11 75 16 72 5 -3 31 18 58 47 28 29
47 55 42 58 -5 3 -4 23 2 45 14 54 12 85 -6 120 -20 38 -20 49 -1 41 8 -3 15
-1 15 5 0 6 9 24 21 40 20 29 28 86 14 109 -9 15 19 72 55 111 16 18 36 55 45
83 16 47 16 51 0 63 -10 7 -19 28 -20 48 -2 32 -1 34 15 20 27 -25 35 -17 32
29 -3 35 -9 46 -28 55 -15 6 -24 7 -24 1 0 -13 -33 -13 -46 0 -7 7 -9 1 -6
-20 6 -40 -5 -38 -17 3 -9 30 -10 30 -16 10 -8 -24 -48 -32 -60 -13 -4 6 -14
9 -23 8 -10 -2 -16 3 -14 10 1 8 -2 10 -8 7 -6 -4 -19 0 -29 9 -16 15 -19 12
-40 -30 -16 -35 -18 -45 -7 -41 8 3 17 -1 20 -9 3 -8 17 -14 31 -14 16 0 25
-6 25 -15 0 -16 15 -20 24 -7 3 5 19 7 36 4 33 -5 39 8 15 32 -19 18 -19 26
-1 26 19 0 46 -38 46 -63 0 -15 -3 -17 -13 -9 -8 7 -18 6 -31 -3 -16 -13 -17
-19 -8 -57 7 -27 8 -46 2 -52 -6 -6 -10 -19 -10 -31 0 -12 -6 -27 -12 -35 -11
-12 -10 -12 3 -2 28 21 39 -6 14 -32 -13 -13 -14 -20 -4 -38 11 -21 11 -22 -4
-9 -25 20 -23 -9 3 -42 11 -14 20 -29 20 -34 0 -4 -9 3 -20 17 l-19 25 2 -36
c1 -21 5 -35 10 -32 4 2 7 -7 7 -21 0 -19 -5 -26 -20 -26 -11 0 -20 -4 -20
-10 0 -5 -9 -10 -20 -10 -11 0 -20 -3 -20 -6 0 -11 34 -64 41 -64 4 0 5 -9 2
-20 -5 -20 -6 -20 -25 2 l-20 23 3 -40 c1 -22 1 -53 0 -70 -2 -26 -3 -28 -11
-10 -8 18 -9 18 -9 2 -1 -10 -5 -15 -11 -12 -14 9 -12 -19 2 -33 9 -9 9 -12 0
-12 -8 0 -9 -7 -2 -26 7 -17 7 -23 -1 -19 -14 10 -49 -24 -42 -41 3 -8 -1 -14
-11 -14 -17 0 -20 5 -30 53 -5 22 -12 27 -35 27 -30 0 -29 -3 -22 71 1 4 9 9
19 13 9 3 23 9 30 12 8 4 12 -3 13 -18 l0 -23 10 23 c5 13 13 20 19 17 6 -4
10 8 10 30 0 32 -3 36 -17 30 -10 -4 -29 -10 -41 -13 -20 -4 -23 -1 -20 18 1
13 -3 25 -9 27 -7 3 -13 -2 -13 -9 0 -8 -6 -23 -14 -34 -12 -15 -17 -17 -27
-6 -7 6 -23 12 -35 12 -30 0 -68 40 -72 75 -2 17 -7 31 -12 33 -10 4 11 62 22
62 4 0 8 7 8 15 0 22 16 18 37 -8 10 -13 34 -28 53 -34 19 -6 27 -11 17 -12
-10 -1 -15 -5 -12 -11 7 -11 64 -2 83 13 17 13 15 27 -3 27 -16 0 -20 16 -6
24 4 3 7 16 6 28 -1 13 -3 29 -4 36 -2 20 -31 13 -31 -8 0 -11 -6 -20 -14 -20
-7 0 -16 -9 -19 -20 -3 -11 -13 -20 -22 -20 -25 0 -75 39 -75 59 0 28 -12 33
-27 11 -12 -17 -12 -24 -2 -37 12 -14 10 -15 -19 -9 -26 6 -31 5 -26 -7 3 -10
-3 -20 -17 -27 -19 -11 -21 -18 -16 -70 4 -53 3 -58 -14 -57 -10 1 -19 5 -19
10 0 4 -5 5 -11 2 -6 -4 -7 -19 -4 -37 5 -21 4 -28 -4 -24 -6 4 -11 3 -11 -3
0 -6 -10 -20 -22 -32 -13 -12 -17 -19 -10 -15 16 10 15 -5 -4 -53 -9 -22 -14
-46 -11 -53 4 -9 6 -7 6 3 1 10 12 36 26 60 18 33 25 39 30 27 10 -25 -41
-104 -82 -128 -28 -17 -33 -23 -23 -35 6 -8 9 -19 5 -25 -3 -5 -1 -10 4 -10 6
0 11 4 11 9 0 5 34 8 76 7 41 -1 77 1 80 6 10 16 31 8 44 -17 8 -14 20 -23 27
-21 16 6 18 -30 2 -39 -5 -4 -14 -18 -19 -31 -11 -27 -32 -31 -50 -9 -21 25
-100 13 -100 -16 0 -6 7 -6 19 1 11 5 30 10 42 10 18 0 10 -8 -30 -32 -37 -23
-61 -46 -77 -77 -24 -45 -23 -72 0 -48 7 7 20 26 29 42 13 26 16 27 22 12 5
-11 -2 -32 -19 -58 -25 -37 -26 -41 -11 -62 8 -12 15 -29 15 -39 0 -23 16 -23
28 -1 8 14 11 13 17 -7 9 -28 -12 -70 -35 -70 -20 0 -70 -23 -70 -32 0 -4 -9
-12 -19 -17 -16 -9 -18 -8 -14 9 7 25 6 25 -42 0 -22 -11 -44 -20 -50 -20 -6
0 -11 -9 -11 -20 0 -13 7 -20 18 -20 10 0 18 7 18 15 0 8 7 15 15 15 8 0 15
-8 15 -19 0 -21 -45 -55 -60 -46 -6 3 -10 2 -10 -4 0 -5 5 -11 12 -13 6 -2 9
-12 5 -21 -4 -10 -12 -14 -22 -11 -10 4 -14 2 -10 -8 4 -9 -4 -20 -20 -28 -23
-12 -28 -11 -53 9 -28 22 -89 54 -129 66 -22 6 -23 4 -23 -59 0 -46 5 -69 16
-81 9 -9 14 -19 11 -22 -4 -3 0 -18 8 -33 14 -27 14 -27 -13 -24 -32 4 -49 -5
-52 -26 -5 -30 1 -40 30 -55 30 -15 47 -16 43 -2 -5 12 25 8 33 -5 4 -7 11
-32 14 -56 6 -39 5 -43 -11 -39 -11 3 -22 1 -25 -5 -3 -5 3 -12 15 -15 25 -6
27 -16 6 -33 -23 -19 -18 -33 10 -28 22 5 25 2 25 -26 1 -28 2 -29 14 -13 12
16 14 14 19 -19 4 -25 2 -41 -8 -51 -21 -21 -18 -36 5 -30 12 3 24 -1 31 -11
8 -14 9 -12 5 8 -6 31 3 72 15 64 5 -3 9 -27 9 -55 0 -37 -4 -49 -15 -49 -8 0
-15 -9 -15 -20 0 -11 -4 -20 -10 -20 -5 0 -10 11 -10 24 0 23 -3 24 -35 19
-25 -4 -35 -2 -35 7 0 9 -6 8 -19 -4 -31 -29 -80 3 -72 47 1 5 -10 18 -24 29
-30 23 -33 58 -6 75 17 11 18 16 8 38 -8 17 -20 25 -37 25 -14 0 -32 5 -40 10
-18 11 -60 -24 -60 -51 0 -9 -5 -19 -12 -21 -6 -2 -12 -28 -13 -59 -1 -29 -6
-63 -10 -73 -6 -14 -5 -17 3 -12 7 4 22 -3 34 -15 21 -19 22 -22 6 -32 -15
-10 -15 -14 3 -49 16 -32 17 -38 4 -38 -9 0 -15 -9 -15 -24 0 -34 -20 -43 -40
-18 -16 20 -17 18 -39 -56 -78 -264 -104 -350 -111 -372 -5 -14 -23 -72 -40
-130 -18 -58 -45 -145 -60 -195 -15 -49 -38 -126 -50 -170 -34 -121 -61 -215
-76 -263 -8 -23 -14 -51 -14 -62 0 -10 -5 -22 -10 -25 -6 -3 -10 -24 -10 -46
0 -24 -4 -38 -10 -34 -5 3 -10 -2 -11 -12 -1 -25 -4 -40 -23 -102 -26 -88 -25
-91 39 -91 44 0 56 4 65 20 6 10 9 23 8 27 -4 15 13 103 20 103 4 0 9 14 10
32 1 17 9 45 16 62 8 17 16 48 19 68 3 20 12 52 20 70 14 34 46 149 50 183 2
14 9 19 23 18 16 -2 24 6 33 36 6 21 11 52 11 68 0 16 4 33 8 39 9 9 34 88 48
148 5 21 4 27 -5 22 -16 -10 -14 49 2 66 8 7 12 18 10 24 -2 5 6 20 17 32 11
11 20 30 20 40 0 11 6 35 14 54 14 32 90 299 123 428 22 86 21 84 39 66 8 -9
20 -16 25 -16 22 0 7 -19 -18 -23 -22 -3 -19 -4 11 -6 36 -1 38 -3 33 -27 -4
-22 0 -28 24 -37 16 -6 29 -17 29 -24 0 -10 -4 -11 -19 -1 -15 9 -23 9 -35 -1
-19 -16 -21 -48 -3 -54 6 -2 8 -8 4 -13 -5 -5 -22 6 -39 25 -24 26 -32 31 -39
20 -9 -14 -55 -201 -234 -944 -54 -221 -115 -487 -115 -497 0 -4 116 -8 259
-8 l258 0 12 88 c6 48 38 298 71 557 33 259 67 517 76 575 15 101 17 106 41
108 20 1 24 -2 19 -15 -4 -9 -11 -118 -16 -242 -5 -124 -17 -298 -25 -386 -14
-149 -38 -413 -51 -565 -3 -36 -7 -78 -9 -93 l-5 -28 240 1 c218 1 240 3 240
18 1 21 25 54 33 45 4 -3 8 -1 8 5 1 7 2 16 3 22 0 5 11 17 23 25 17 12 28 13
42 5 11 -5 30 -9 43 -9 17 1 18 3 6 6 -10 2 -18 11 -18 19 0 10 9 13 35 9 26
-3 35 0 35 10 0 8 6 15 13 15 8 0 13 -14 14 -36 1 -19 3 -38 6 -41 10 -9 27 8
27 28 0 10 3 19 8 19 12 0 33 -40 27 -50 -4 -6 -1 -10 4 -10 6 0 12 15 12 33
2 30 2 30 6 5 2 -16 8 -28 13 -28 5 0 7 -7 4 -15 -4 -9 0 -15 10 -15 9 0 16 6
16 13 1 7 6 5 14 -6 11 -14 15 -15 19 -5 3 7 6 3 6 -9 1 -13 7 -23 16 -23 11
0 13 8 8 33 -3 17 -6 36 -7 41 0 5 5 11 13 14 10 3 13 -1 9 -15 -3 -11 1 -28
8 -38 8 -10 14 -27 14 -37 0 -10 4 -18 9 -18 11 0 21 25 21 51 0 10 7 19 15
19 9 0 12 -6 9 -15 -4 -10 0 -15 11 -15 12 0 15 7 13 30 -2 16 2 28 7 27 6 -1
9 -8 9 -14 -3 -21 20 -14 39 13 12 16 17 34 13 49 -3 13 -2 27 4 30 5 3 10 1
10 -6 0 -7 3 -9 7 -6 3 4 12 2 20 -5 10 -8 17 -8 26 1 9 9 9 14 -1 20 -11 7
-11 9 2 14 9 4 19 -1 25 -11 5 -9 12 -16 15 -14 14 5 26 1 26 -9 0 -23 92
-128 113 -129 4 0 7 9 7 19 0 15 7 19 35 19 23 0 35 -5 35 -14 0 -10 10 -12
45 -7 35 4 45 3 45 -8 0 -8 3 -10 8 -4 10 14 145 14 155 1 5 -6 7 1 4 17 -4
26 -3 27 14 11 17 -15 19 -15 25 0 7 18 44 22 44 4 0 -6 6 -4 14 7 11 15 22
17 65 12 42 -5 51 -3 51 10 0 9 6 13 14 10 8 -3 20 1 26 9 16 18 29 18 52 -3
11 -9 18 -11 18 -5 0 7 11 12 25 12 14 0 25 5 25 11 0 20 30 40 50 34 10 -3
30 1 43 9 21 15 25 14 45 -4 26 -25 39 -25 45 -2 4 13 5 11 6 -5 1 -27 26 -31
35 -7 6 15 8 15 25 0 13 -12 32 -17 54 -15 42 4 92 -30 114 -76 14 -30 14 -30
8 -2 -3 15 -1 27 5 27 5 0 10 7 10 15 0 22 17 18 23 -6 3 -12 10 -18 15 -15 5
3 15 -1 22 -9 7 -8 18 -15 24 -15 6 0 5 4 -3 9 -9 6 -10 11 -2 15 6 4 18 0 27
-8 22 -23 33 -20 27 7 l-5 22 19 -21 c10 -12 25 -24 33 -27 11 -3 8 -8 -10
-15 -25 -11 -25 -11 -2 -11 15 -1 22 -6 20 -17 -2 -12 7 -17 35 -20 35 -3 49
7 27 21 -5 3 -10 0 -10 -7 0 -9 -3 -9 -10 2 -13 20 14 40 53 40 27 0 29 3 25
29 -3 21 -1 28 9 24 16 -6 16 -18 3 -44 -10 -17 -7 -19 29 -19 22 0 47 -3 56
-6 11 -5 18 0 22 15 6 23 28 28 36 9 4 -10 6 -10 6 -1 1 6 -8 18 -19 26 -11 8
-17 17 -13 20 3 4 12 2 19 -4 17 -14 54 -2 54 17 0 16 16 19 24 5 3 -5 26 -7
50 -6 31 2 46 -1 50 -11 3 -8 10 -14 16 -14 17 0 11 26 -11 46 -17 15 -23 16
-40 5 -16 -9 -24 -9 -35 0 -8 6 -14 8 -14 3 0 -4 -5 -3 -11 3 -6 6 -8 17 -4
23 6 9 10 8 17 -4 7 -13 12 -14 28 -3 16 9 24 9 40 -1 14 -8 20 -9 20 -1 0 6
9 9 20 6 11 -3 20 -1 20 4 0 5 -7 9 -15 9 -19 0 -20 24 -2 39 10 7 17 7 24 0
8 -8 13 -8 17 0 4 6 2 11 -4 11 -6 0 -8 5 -5 10 3 6 16 10 28 10 16 0 18 3 9
12 -19 19 -14 31 9 25 16 -4 19 -2 15 10 -5 12 -1 14 19 11 13 -3 22 -1 19 3
-2 4 3 17 13 29 21 24 69 27 99 6 18 -13 21 -12 32 4 10 16 9 18 -3 14 -9 -4
-15 0 -15 9 0 21 19 32 33 18 16 -16 37 -14 31 4 -4 10 0 15 11 15 9 0 13 -4
10 -10 -6 -9 8 -14 29 -11 4 1 14 -4 22 -10 10 -8 14 -8 14 0 0 6 -8 16 -18
22 -18 11 -17 12 2 34 28 32 57 22 49 -16 -5 -24 -3 -28 11 -23 14 5 14 9 4
22 -11 13 -10 14 15 8 16 -4 27 -2 27 4 0 5 -7 10 -15 10 -9 0 -20 11 -25 25
-5 14 -16 25 -24 25 -23 0 -40 36 -20 44 9 3 20 3 25 0 6 -3 9 6 7 23 -2 19 1
27 11 25 7 -1 20 3 27 9 11 9 18 9 26 1 7 -7 3 -18 -16 -37 -26 -26 -30 -45
-11 -48 6 -1 11 8 13 21 2 16 10 22 27 22 23 0 40 14 40 35 0 6 10 11 23 13
39 6 24 22 -20 22 -24 0 -38 4 -33 8 17 12 15 62 -2 62 -10 0 -12 -6 -8 -20 5
-15 3 -18 -9 -14 -9 3 -16 12 -16 20 0 8 -7 14 -15 14 -8 0 -15 6 -15 13 -1
19 -45 47 -82 51 -18 3 -35 5 -37 5 -2 1 2 7 8 15 9 10 8 15 -3 19 -9 4 -13
17 -11 38 2 34 -27 79 -52 79 -7 0 -13 10 -13 22 0 12 -7 29 -16 39 -11 12
-14 25 -9 36 16 36 16 63 0 69 -8 3 -15 13 -15 21 0 9 -6 13 -15 9 -18 -7 -19
-3 -3 27 27 52 28 58 18 77 -5 10 -26 24 -45 31 -19 7 -35 16 -35 19 0 12 -37
50 -49 50 -6 0 -11 14 -11 30 0 21 -10 40 -30 60 -18 18 -27 35 -24 44 3 9 10
14 14 11 5 -3 11 -1 15 5 3 5 20 10 36 10 25 0 29 3 24 19 -5 15 -2 18 13 14
13 -3 25 3 36 18 14 20 19 22 36 11 16 -10 18 -9 14 3 -6 14 10 19 54 18 6 -1
12 6 12 14 0 23 111 -42 183 -107 34 -31 74 -63 89 -73 15 -9 49 -36 76 -60
26 -23 60 -51 75 -62 15 -11 27 -25 27 -31 0 -6 10 -16 23 -22 24 -11 34 -19
181 -142 56 -47 110 -91 119 -99 16 -13 17 134 17 2423 l0 2436 -600 0 -600 0
-1 -77 c0 -43 -5 -87 -10 -98 -6 -13 -7 13 -4 78 l6 97 -34 0 c-33 0 -35 -2
-42 -42z m56 -557 c-15 -263 -23 -412 -26 -516 -4 -131 -4 -135 -15 -135 -6 0
-8 10 -6 23 3 12 10 175 16 362 12 415 18 496 32 471 7 -13 7 -78 -1 -205z
m-1637 157 c4 -17 2 -28 -4 -28 -5 0 -10 14 -10 32 0 36 4 35 14 -4z m36 22
c0 -5 -4 -10 -9 -10 -6 0 -13 5 -16 10 -3 6 1 10 9 10 9 0 16 -4 16 -10z m173
-21 c17 -20 18 -22 1 -40 -9 -10 -14 -20 -11 -20 4 -1 12 -3 17 -4 6 -1 15 -3
20 -4 6 0 10 -6 10 -12 0 -6 -7 -9 -15 -6 -11 5 -13 0 -8 -25 l6 -32 -24 23
c-20 18 -24 32 -25 82 0 32 3 59 6 59 3 0 14 -9 23 -21z m-233 -20 c0 -13 -29
-43 -36 -37 -9 9 16 59 26 53 5 -3 10 -11 10 -16z m380 -2 c14 -5 32 -11 40
-13 8 -2 16 -8 18 -13 2 -6 10 -11 18 -11 8 0 14 -7 14 -16 0 -10 -6 -14 -15
-11 -8 4 -17 2 -21 -4 -3 -6 -17 1 -31 16 -14 14 -29 25 -33 25 -4 0 -20 12
-36 26 -29 25 -29 26 -4 19 14 -4 36 -12 50 -18z m-285 -1 c16 -16 10 -26 -17
-26 -11 0 -18 7 -18 20 0 23 15 26 35 6z m82 -21 c0 -17 -13 -20 -21 -6 -4 5
0 12 6 14 7 3 13 6 14 6 0 1 1 -6 1 -14z m390 -57 c-3 -8 -6 -5 -6 6 -1 11 2
17 5 13 3 -3 4 -12 1 -19z m-177 -38 c0 -5 -7 -10 -15 -10 -8 0 -15 5 -15 10
0 6 7 10 15 10 8 0 15 -4 15 -10z m66 -22 c11 -13 26 -36 32 -51 11 -26 11
-27 -8 -17 -11 6 -20 16 -20 22 0 6 -9 8 -21 5 -15 -4 -22 1 -30 19 -5 14 -9
30 -9 35 0 17 37 9 56 -13z m-90 -33 c2 -20 -1 -23 -11 -15 -8 6 -11 18 -8 26
8 22 18 17 19 -11z m-18 -57 c12 -21 17 -38 11 -38 -9 0 -39 59 -39 76 0 9 2
6 28 -38z m262 21 c11 -19 10 -20 -9 -9 -22 11 -29 30 -11 30 5 0 14 -9 20
-21z m64 -4 c3 -8 1 -15 -4 -15 -6 0 -10 7 -10 15 0 8 2 15 4 15 2 0 6 -7 10
-15z m351 5 c3 -5 1 -10 -4 -10 -6 0 -11 5 -11 10 0 6 2 10 4 10 3 0 8 -4 11
-10z m-725 -21 c0 -6 -4 -7 -10 -4 -5 3 -10 11 -10 16 0 6 5 7 10 4 6 -3 10
-11 10 -16z m165 -71 c-6 -26 -5 -30 9 -25 11 5 18 -3 26 -31 13 -48 13 -49
-5 -56 -13 -4 -14 1 -9 34 6 36 5 40 -15 40 -18 0 -21 -4 -16 -20 5 -14 3 -18
-8 -15 -9 4 -14 23 -15 55 -1 44 2 50 19 50 18 0 20 -4 14 -32z m189 6 c3 -8
2 -12 -4 -9 -6 3 -10 10 -10 16 0 14 7 11 14 -7z m-14 -29 c0 -8 7 -15 15 -15
8 0 15 -7 15 -15 0 -30 -29 -11 -43 28 -4 9 -2 17 3 17 6 0 10 -7 10 -15z
m223 -6 c3 -13 1 -19 -6 -16 -15 5 -22 37 -9 37 5 0 12 -9 15 -21z m-477 -6
c19 -25 17 -32 -6 -26 -11 3 -20 14 -20 24 0 24 9 24 26 2z m431 -19 c-9 -9
-28 6 -21 18 4 6 10 6 17 -1 6 -6 8 -13 4 -17z m-229 -6 c16 -16 15 -38 -2
-38 -13 0 -26 20 -26 41 0 13 14 11 28 -3z m-621 -20 c-3 -8 -6 -5 -6 6 -1 11
2 17 5 13 3 -3 4 -12 1 -19z m413 -9 c0 -5 -4 -9 -10 -9 -5 0 -10 7 -10 16 0
8 5 12 10 9 6 -3 10 -10 10 -16z m424 -4 c-4 -8 -8 -15 -10 -15 -2 0 -4 7 -4
15 0 8 4 15 10 15 5 0 7 -7 4 -15z m-344 -91 c0 -8 -4 -12 -10 -9 -5 3 -10 10
-10 16 0 5 5 9 10 9 6 0 10 -7 10 -16z m-208 -27 c-4 -23 25 -22 31 1 3 11 5
8 6 -9 0 -15 -5 -29 -12 -32 -15 -6 -70 47 -60 57 13 13 38 0 35 -17z m395 1
c-3 -8 -6 -5 -6 6 -1 11 2 17 5 13 3 -3 4 -12 1 -19z m223 -19 c0 -6 -4 -7
-10 -4 -5 3 -10 11 -10 16 0 6 5 7 10 4 6 -3 10 -11 10 -16z m-432 -11 c14
-14 16 -82 2 -73 -5 3 -7 12 -4 19 3 7 -2 20 -10 29 -17 17 -21 37 -8 37 4 0
13 -5 20 -12z m222 -4 c0 -8 -4 -12 -10 -9 -5 3 -10 10 -10 16 0 5 5 9 10 9 6
0 10 -7 10 -16z m390 0 c0 -8 -4 -12 -10 -9 -5 3 -10 10 -10 16 0 5 5 9 10 9
6 0 10 -7 10 -16z m-630 -91 c0 -13 -4 -23 -10 -23 -5 0 -10 3 -10 8 0 4 -9
18 -19 31 l-18 23 0 -33 c0 -19 2 -28 5 -21 5 17 22 15 22 -3 0 -16 -18 -20
-35 -7 -5 4 -11 18 -11 32 -1 14 -5 36 -8 50 -5 21 -5 22 3 5 5 -11 10 -15 11
-10 1 6 3 15 5 20 1 6 3 14 3 19 3 18 61 -69 62 -91z m389 60 c0 -16 -3 -22
-6 -13 -3 8 -10 21 -16 28 -7 8 -5 12 7 12 11 0 16 -8 15 -27z m-252 -15 c-3
-8 -6 -5 -6 6 -1 11 2 17 5 13 3 -3 4 -12 1 -19z m220 7 c9 -25 -4 -29 -17 -6
-7 15 -7 21 0 21 6 0 13 -7 17 -15z m33 -119 c0 -11 -19 -15 -25 -6 -3 5 1 10
9 10 9 0 16 -2 16 -4z m-443 -60 c2 -43 13 -63 13 -26 0 31 15 15 24 -25 5
-22 4 -26 -4 -15 -8 12 -10 10 -10 -10 0 -20 -2 -22 -10 -10 -5 8 -15 15 -21
15 -7 0 -14 16 -17 35 -2 19 -11 44 -20 54 -16 18 -16 19 1 13 9 -4 17 -2 17
4 0 6 5 9 12 7 7 -3 13 -21 15 -42z m456 14 c3 -13 0 -20 -9 -20 -8 0 -14 2
-14 4 0 2 -3 11 -6 20 -4 10 -1 16 9 16 8 0 17 -9 20 -20z m382 10 c3 -6 -1
-7 -9 -4 -18 7 -21 14 -7 14 6 0 13 -4 16 -10z m-979 -36 c3 -27 3 -27 -12 -5
-8 11 -12 26 -9 32 10 15 18 4 21 -27z m439 13 l20 -19 -21 6 c-15 4 -24 2
-28 -9 -3 -8 -17 -15 -31 -15 -14 0 -36 -9 -48 -20 -12 -11 -27 -18 -34 -16
-7 3 -10 -1 -6 -10 3 -8 -1 -14 -11 -14 -21 0 -21 33 0 66 16 23 18 24 35 8
18 -17 20 -15 23 19 3 31 69 35 101 4z m-341 -49 c10 -2 11 -10 4 -27 -6 -19
-11 -22 -20 -13 -19 19 -28 14 -28 -12 0 -14 -4 -28 -10 -31 -9 -6 -11 3 -14
60 -1 8 3 15 8 14 5 0 16 15 25 33 l16 33 3 -27 c2 -15 9 -28 16 -30z m626 -3
c0 -5 -5 -3 -10 5 -5 8 -10 20 -10 25 0 6 5 3 10 -5 5 -8 10 -19 10 -25z
m-831 -132 c-11 -29 -6 -53 12 -53 7 0 9 9 5 24 -5 22 14 53 26 41 6 -7 -14
-101 -25 -111 -4 -4 -7 -13 -7 -20 0 -18 -42 -59 -60 -59 -8 0 -25 11 -37 25
-12 14 -23 19 -23 13 0 -7 -6 -13 -14 -13 -8 0 -17 6 -19 13 -4 9 -6 9 -6 0
-1 -6 4 -15 9 -18 6 -3 10 -13 10 -21 0 -11 -8 -14 -27 -12 -24 3 -30 10 -42
55 -12 46 -12 54 2 67 9 9 20 16 26 16 6 0 11 6 11 13 0 8 3 7 9 -2 8 -12 11
-9 16 12 4 15 11 27 16 27 5 0 31 -23 59 -51 27 -28 54 -48 60 -44 15 9 12 25
-5 25 -8 0 -15 4 -15 9 0 5 -7 17 -16 26 -24 23 -11 65 21 65 22 0 24 -2 14
-27z m231 16 c0 -6 9 -8 23 -3 12 3 19 3 15 -1 -4 -5 -3 -14 3 -22 9 -10 8
-13 -2 -13 -11 0 -11 -2 1 -10 9 -6 10 -10 3 -10 -13 0 -63 50 -63 62 0 5 5 8
10 8 6 0 10 -5 10 -11z m-73 -43 c-4 -10 -1 -13 8 -10 14 6 38 -25 50 -63 5
-18 2 -23 -12 -23 -14 0 -15 2 -4 9 10 6 10 10 1 16 -6 4 -17 -1 -24 -11 -7
-9 -17 -14 -22 -11 -6 3 -16 2 -24 -3 -12 -7 -11 -12 4 -29 24 -26 2 -29 -27
-3 -22 18 -22 19 -1 -33 4 -10 0 -15 -11 -15 -9 0 -14 4 -11 9 3 5 -1 14 -9
21 -17 14 -20 56 -5 65 6 4 20 25 31 47 16 31 23 38 30 27 7 -11 9 -11 9 4 0
9 5 17 11 17 6 0 9 -7 6 -14z m278 4 c15 0 27 -37 15 -45 -5 -3 -14 4 -20 15
-6 11 -15 20 -21 20 -5 0 -2 -14 6 -31 19 -35 13 -48 -11 -28 -16 13 -17 12
-12 -9 6 -20 3 -22 -28 -20 -22 1 -36 8 -40 20 -8 25 18 74 38 70 9 -1 20 2
23 8 4 6 14 9 22 6 8 -3 20 -6 28 -6z m53 -18 c6 -18 -15 -14 -22 4 -4 10 -1
14 6 12 6 -2 14 -10 16 -16z m-439 -46 c-9 -8 -10 -7 -5 7 3 10 7 26 7 35 1 9
4 6 6 -7 3 -13 -1 -28 -8 -35z m201 -16 c0 -5 -4 -10 -10 -10 -5 0 -10 5 -10
10 0 6 5 10 10 10 6 0 10 -4 10 -10z m515 0 c3 -5 1 -10 -4 -10 -6 0 -11 5
-11 10 0 6 2 10 4 10 3 0 8 -4 11 -10z m-25 -10 c0 -5 -4 -10 -10 -10 -5 0
-10 5 -10 10 0 6 5 10 10 10 6 0 10 -4 10 -10z m-530 -40 c0 -5 -4 -10 -10
-10 -5 0 -10 5 -10 10 0 6 5 10 10 10 6 0 10 -4 10 -10z m-198 -22 c-6 -6 -15
-8 -19 -4 -4 4 -1 11 7 16 19 12 27 3 12 -12z m694 5 c-11 -11 -35 -12 -42 -2
-3 5 7 9 22 9 15 0 24 -3 20 -7z m-746 -45 c23 -25 26 -40 6 -32 -19 7 -33
-22 -31 -66 1 -34 -9 -50 -30 -50 -5 0 -3 5 5 10 13 8 12 10 -2 10 -11 0 -18
-8 -18 -20 0 -21 -10 -26 -25 -11 -17 15 -55 23 -55 12 0 -6 9 -11 21 -11 12
0 19 -5 16 -12 -2 -7 -11 -12 -21 -10 -9 2 -16 -4 -16 -13 0 -8 -6 -15 -13
-15 -18 0 -37 21 -37 40 0 9 -9 25 -19 34 -21 19 -17 58 4 50 7 -3 16 4 20 16
4 13 12 19 21 16 8 -3 14 -1 14 5 0 6 5 7 10 4 6 -3 10 1 10 9 0 27 29 17 50
-16 11 -18 20 -26 20 -18 0 13 1 13 10 0 8 -13 10 -13 10 2 0 9 -4 20 -10 23
-15 9 -12 23 10 45 25 25 25 25 50 -2z m233 -30 c2 -18 3 -35 1 -37 -9 -10
-31 34 -26 51 7 28 19 21 25 -14z m185 1 c7 -12 16 -18 19 -15 8 8 33 -13 33
-28 0 -6 -5 -4 -10 4 -9 13 -10 13 -11 0 -1 -8 -1 -21 0 -27 1 -7 -5 -13 -13
-13 -8 0 -23 -13 -33 -30 -9 -16 -23 -30 -29 -30 -7 0 -19 -3 -28 -6 -13 -5
-16 1 -16 30 0 20 5 36 10 36 6 0 10 6 10 13 0 7 9 23 19 34 11 12 17 23 14
26 -6 7 5 27 15 27 4 0 13 -9 20 -21z m-246 -21 c-2 -13 2 -16 14 -11 14 5 16
3 11 -11 -5 -11 -3 -15 5 -10 8 5 9 2 5 -11 -4 -9 -2 -24 4 -31 7 -9 8 -14 1
-14 -5 0 -8 -9 -5 -20 7 -26 -8 -26 -30 1 -15 16 -21 18 -33 9 -8 -7 -14 -19
-14 -26 0 -19 -10 -18 -26 4 -12 15 -12 14 -7 -8 6 -24 6 -24 -17 -9 -13 9
-28 31 -33 49 -7 28 -5 35 15 49 13 9 28 16 33 17 26 2 43 17 38 31 -4 11 0
14 18 11 16 -2 23 -9 21 -20z m-60 -10 c-7 -7 -12 -8 -12 -2 0 6 3 14 7 17 3
4 9 5 12 2 2 -3 -1 -11 -7 -17z m-89 -30 c-2 -5 -11 -1 -19 7 -9 8 -12 20 -9
26 5 6 12 4 20 -8 7 -10 11 -21 8 -25z m247 32 c0 -5 -5 -10 -11 -10 -5 0 -7
5 -4 10 3 6 8 10 11 10 2 0 4 -4 4 -10z m353 -18 c16 -17 14 -62 -3 -62 -17 0
-39 37 -33 58 7 27 15 28 36 4z m-633 -104 c0 -13 -23 -5 -28 10 -2 7 2 10 12
6 9 -3 16 -11 16 -16z m620 12 c0 -5 -2 -10 -4 -10 -3 0 -8 5 -11 10 -3 6 -1
10 4 10 6 0 11 -4 11 -10z m153 -62 c-7 -12 -20 -9 -37 8 -12 12 -13 18 -4 28
10 10 16 9 29 -8 10 -11 15 -24 12 -28z m-797 17 c6 -5 15 -29 21 -52 9 -36 9
-43 -4 -43 -9 0 -13 -6 -10 -15 4 -8 1 -18 -5 -21 -8 -5 -5 -10 8 -15 15 -6
14 -8 -10 -8 -16 -1 -38 7 -49 17 -10 9 -30 17 -43 17 -20 1 -23 -3 -17 -25 3
-14 3 -23 0 -20 -9 8 -36 94 -32 99 3 2 5 -1 5 -7 0 -23 18 -12 28 16 9 25 14
28 41 24 19 -2 31 0 31 7 0 6 -6 11 -13 11 -8 0 -14 7 -14 15 0 17 45 17 63 0z
m264 -49 c-15 -15 -34 9 -26 31 7 17 8 17 22 -1 9 -13 11 -23 4 -30z m-67 -7
c35 -35 38 -41 19 -36 -22 5 -23 5 -8 -12 16 -17 15 -19 -3 -24 -13 -3 -21 2
-26 17 -6 18 -8 19 -12 4 -4 -15 -8 -16 -24 -7 -19 9 -19 9 -10 -10 16 -30 13
-39 -5 -13 -8 12 -23 21 -32 20 -28 -5 -25 34 4 70 15 17 33 32 41 32 8 0 33
-19 56 -41z m371 16 c16 -24 16 -25 -6 -25 -18 0 -20 -2 -8 -10 19 -11 10 -19
-23 -22 -15 -1 -27 -8 -27 -15 0 -7 -5 -13 -11 -13 -6 0 -9 6 -6 14 3 7 0 19
-6 25 -11 11 -1 15 34 12 10 -1 17 4 16 11 -2 53 12 62 37 23z m146 -31 c0 -8
-5 -12 -10 -9 -6 4 -8 11 -5 16 9 14 15 11 15 -7z m-306 -54 l6 -35 -20 25
c-21 26 -25 42 -13 54 10 10 20 -5 27 -44z m36 10 c0 -5 -4 -10 -10 -10 -5 0
-10 5 -10 10 0 6 5 10 10 10 6 0 10 -4 10 -10z m-64 -56 c-23 -17 -48 -2 -29
17 6 6 9 19 6 28 -4 11 2 9 18 -7 24 -23 24 -23 5 -38z m109 26 c10 -11 16
-23 13 -26 -7 -6 -48 27 -48 38 0 14 17 8 35 -12z m-25 -36 c0 -8 -7 -14 -15
-14 -15 0 -21 21 -9 33 10 9 24 -2 24 -19z m-422 -38 c5 -6 6 -22 3 -36 l-7
-24 -21 21 c-12 12 -24 19 -27 16 -3 -4 -6 5 -6 19 0 21 4 25 25 21 13 -3 28
-10 33 -17z m392 -11 c6 -8 9 -19 5 -25 -3 -5 -1 -10 4 -10 21 0 11 -28 -11
-34 -36 -9 -48 -7 -48 10 0 8 4 13 9 9 5 -3 12 -1 15 4 4 5 2 12 -3 15 -10 7
-3 46 9 46 4 0 13 -7 20 -15z m-980 -25 c0 -5 -2 -10 -4 -10 -3 0 -8 5 -11 10
-3 6 -1 10 4 10 6 0 11 -4 11 -10z m905 -11 c6 -19 0 -38 -9 -28 -10 12 -16
49 -7 49 5 0 13 -9 16 -21z m-375 -14 c0 -8 -4 -15 -10 -15 -5 0 -10 7 -10 15
0 8 5 15 10 15 6 0 10 -7 10 -15z m220 -6 c0 -6 -4 -7 -10 -4 -5 3 -10 11 -10
16 0 6 5 7 10 4 6 -3 10 -11 10 -16z m407 -31 c-3 -8 -6 -5 -6 6 -1 11 2 17 5
13 3 -3 4 -12 1 -19z m83 7 c27 -15 20 -19 -17 -9 -13 4 -23 10 -23 15 0 12
11 11 40 -6z m-1010 -67 c0 -5 -4 -8 -10 -8 -5 0 -10 10 -10 23 0 18 2 19 10
7 5 -8 10 -18 10 -22z m710 13 c0 -11 4 -22 10 -26 5 -3 7 -12 4 -19 -6 -16
-52 -27 -60 -15 -3 5 3 9 14 9 28 0 33 10 16 34 -8 13 -11 26 -7 29 12 13 23
7 23 -12z m145 -31 c3 -5 1 -10 -4 -10 -6 0 -11 5 -11 10 0 6 2 10 4 10 3 0 8
-4 11 -10z m-76 -90 c-2 -21 3 -45 10 -54 16 -19 18 -18 -37 -21 -34 -3 -45 1
-57 18 -8 12 -15 29 -15 38 0 22 27 32 34 13 3 -8 12 -14 20 -14 20 0 8 40
-13 41 -9 0 -3 6 14 14 39 17 47 11 44 -35z m-691 -2 c18 -16 15 -24 -20 -48
l-33 -21 34 7 c19 3 46 17 60 30 14 13 36 24 48 24 13 0 23 5 23 11 0 5 4 8 9
5 5 -4 11 0 14 6 9 25 38 -17 37 -53 0 -19 -1 -45 -1 -58 -1 -14 5 -30 13 -35
8 -7 12 -26 10 -49 -3 -30 -6 -36 -16 -27 -11 8 -15 -1 -22 -47 -4 -32 -7 -63
-6 -69 1 -6 -4 -17 -12 -23 -8 -7 -12 -21 -8 -33 5 -20 4 -20 -22 -3 -26 17
-36 9 -14 -13 6 -6 9 -15 5 -19 -11 -11 -22 7 -23 38 -4 99 -4 95 -18 77 -20
-27 -25 -22 -19 17 3 21 1 35 -5 35 -5 0 -10 -6 -9 -12 1 -32 -4 -49 -12 -43
-5 3 -12 1 -16 -4 -3 -6 -12 -8 -20 -4 -10 3 -15 -1 -15 -12 0 -12 -6 -16 -20
-12 -10 3 -21 0 -24 -7 -2 -6 -5 2 -5 18 -1 29 30 66 55 66 16 0 44 51 44 79
0 11 5 23 10 26 6 3 10 1 10 -6 0 -10 3 -10 12 -1 13 13 29 16 27 5 -1 -5 -1
-19 0 -32 1 -23 2 -23 20 -7 15 13 20 14 24 4 4 -8 6 -7 6 5 1 9 -3 17 -9 17
-5 0 -10 18 -10 39 0 22 -4 43 -10 46 -5 3 -10 -1 -10 -10 0 -22 -41 -64 -47
-47 -7 19 -25 14 -52 -15 -15 -18 -25 -24 -28 -15 -3 6 -10 12 -17 12 -12 0
-41 105 -32 119 3 5 -1 12 -10 15 -20 8 -8 26 17 26 12 0 17 4 13 11 -8 14 54
2 74 -13z m287 -37 c-15 -15 -16 -14 -9 14 10 44 18 53 22 26 2 -13 -4 -31
-13 -40z m-29 13 c-3 -9 -6 -18 -6 -20 0 -2 -7 -4 -15 -4 -18 0 -20 26 -2 33
23 10 29 7 23 -9z m-831 -54 c3 -5 1 -10 -4 -10 -6 0 -11 5 -11 10 0 6 2 10 4
10 3 0 8 -4 11 -10z m784 -28 c0 -24 -1 -25 -9 -7 l-9 20 -1 -20 -1 -20 -9 20
c-12 29 -12 31 10 32 16 1 20 -4 19 -25z m466 10 c12 -8 35 -71 35 -94 0 -16
47 -34 59 -23 3 4 -4 15 -16 25 -28 22 -29 30 -5 30 10 0 29 -11 42 -26 20
-20 22 -27 10 -34 -11 -7 -11 -11 -1 -24 16 -19 -3 -60 -25 -52 -7 3 -36 8
-63 12 -40 5 -49 10 -48 25 1 11 7 19 14 19 7 0 13 7 13 15 0 8 -4 15 -10 15
-6 0 -6 9 -1 23 11 29 4 47 -19 47 -19 0 -34 25 -24 41 6 11 25 11 39 1z m137
-51 c26 -21 12 -32 -20 -15 -15 7 -33 14 -39 14 -13 0 -18 22 -7 33 6 6 37 -8
66 -32z m-551 -54 c-8 -8 -11 -5 -11 9 0 27 14 41 18 19 2 -9 -1 -22 -7 -28z
m-311 -22 c0 -16 -6 -25 -16 -25 -8 0 -13 4 -10 9 3 5 -1 11 -9 15 -24 9 -17
26 10 26 20 0 25 -5 25 -25z m-793 -57 c-3 -8 -6 -5 -6 6 -1 11 2 17 5 13 3
-3 4 -12 1 -19z m135 -28 c7 -11 18 -20 25 -20 7 0 13 -5 13 -11 0 -6 9 -9 20
-6 11 3 20 2 20 -1 0 -26 -24 -82 -40 -97 -22 -20 -24 -17 -11 18 6 14 6 29 0
38 -7 11 -9 10 -9 -6 0 -11 -5 -27 -10 -35 -7 -12 -11 -10 -19 10 l-10 25 -7
-22 c-3 -13 -9 -23 -13 -23 -8 0 -31 50 -31 67 0 7 -4 13 -9 13 -16 0 -23 52
-9 61 25 16 77 10 90 -11z m1552 14 c24 -9 19 -23 -6 -16 -19 5 -18 0 12 -37
22 -26 30 -45 24 -49 -6 -4 -14 -14 -17 -22 -4 -11 -7 -9 -13 8 -4 14 -12 21
-20 18 -7 -3 -23 3 -35 13 -17 14 -20 24 -15 44 3 15 13 27 21 27 8 0 15 5 15
10 0 11 11 13 34 4z m44 -65 c-3 -8 -7 -3 -11 10 -4 17 -3 21 5 13 5 -5 8 -16
6 -23z m-870 -39 c-12 -19 -28 -27 -28 -14 0 6 30 33 38 34 1 0 -3 -9 -10 -20z
m770 -11 c12 -18 11 -20 -5 -17 -10 2 -19 11 -21 21 -5 23 10 21 26 -4z m-728
-4 c0 -8 11 -17 24 -21 13 -3 26 -14 29 -25 3 -10 1 -17 -4 -13 -5 3 -9 0 -9
-5 0 -6 5 -11 10 -11 6 0 10 -6 10 -13 0 -8 -7 -14 -15 -14 -8 0 -15 9 -15 19
0 16 -6 17 -45 13 -49 -6 -56 2 -25 30 11 10 20 26 20 37 0 10 5 18 10 18 6 0
10 -7 10 -15z m1598 7 c7 -5 10 -16 6 -25 -5 -13 -2 -16 10 -11 9 3 13 10 10
15 -3 5 2 9 10 9 9 0 16 -4 16 -9 0 -5 9 -11 20 -14 29 -8 15 -34 -26 -47 -43
-15 -88 -5 -80 15 22 54 22 51 -8 32 -36 -24 -46 -14 -16 18 25 26 37 30 58
17z m-720 -30 c2 -12 16 -32 31 -45 15 -12 26 -28 23 -35 -2 -7 3 -12 12 -12
9 0 16 -4 16 -10 0 -5 -9 -10 -19 -10 -14 0 -18 -5 -14 -19 4 -16 1 -19 -17
-14 -18 5 -21 12 -18 42 3 32 0 36 -22 38 -14 0 -31 1 -38 2 -7 1 -11 5 -7 10
3 5 17 8 31 5 25 -4 25 -4 9 25 -8 17 -15 35 -15 41 0 20 25 4 28 -18z m-938
-2 c0 -5 -4 -10 -10 -10 -5 0 -10 5 -10 10 0 6 5 10 10 10 6 0 10 -4 10 -10z
m890 0 c0 -5 -2 -10 -4 -10 -3 0 -8 5 -11 10 -3 6 -1 10 4 10 6 0 11 -4 11
-10z m672 -12 c-9 -9 -6 -14 10 -22 11 -6 20 -15 20 -21 -1 -15 39 -32 73 -31
35 2 45 -8 45 -46 0 -18 5 -28 15 -28 8 0 15 -5 15 -11 0 -5 -9 -9 -20 -7 -10
2 -19 0 -20 -4 -1 -30 2 -38 15 -38 8 0 15 -4 15 -10 0 -5 -13 -10 -30 -10
-16 0 -30 -4 -30 -9 0 -16 -40 -23 -55 -11 -22 19 -18 27 18 35 l32 8 -30 4
c-16 2 -41 6 -54 9 -22 5 -22 6 -6 24 11 12 15 26 10 37 -6 17 -7 17 -20 0 -7
-10 -17 -17 -21 -16 -5 1 -13 0 -19 -1 -5 -1 -30 -3 -54 -4 -28 0 -46 -6 -49
-15 -4 -11 3 -13 33 -8 45 7 64 -1 97 -45 23 -30 24 -39 18 -88 -4 -30 -4 -60
1 -66 5 -6 6 -13 3 -17 -3 -3 3 -12 15 -19 27 -16 27 -31 1 -23 -14 5 -20 2
-20 -9 0 -9 -5 -16 -11 -16 -6 0 -9 7 -5 15 3 10 -1 15 -13 15 -11 0 -21 -6
-24 -12 -7 -20 -33 12 -40 50 -5 24 -3 32 8 32 21 0 28 19 14 36 -10 12 -14
12 -20 2 -6 -9 -9 -6 -9 10 0 27 -14 28 -40 4 -21 -20 -24 -71 -5 -84 5 -4 0
-8 -12 -8 -13 0 -23 5 -23 10 0 14 -19 12 -34 -2 -15 -17 -18 -56 -4 -64 7 -5
9 -2 5 8 -10 27 4 28 37 4 19 -15 41 -23 59 -21 27 3 38 -10 15 -18 -10 -3
-10 -7 1 -20 12 -15 11 -17 -3 -17 -9 0 -16 7 -16 15 0 8 -6 15 -13 15 -25 0
-27 -13 -5 -37 l21 -23 -23 0 c-22 0 -23 -1 -5 -20 16 -18 16 -20 2 -20 -22 0
-21 -7 4 -55 12 -22 15 -34 8 -28 -15 12 -92 11 -123 -2 -14 -6 -18 -5 -14 5
2 8 20 16 39 18 39 4 48 10 32 20 -6 4 -14 24 -18 45 -10 53 -42 90 -71 83
-12 -3 -26 -1 -29 4 -4 6 -10 8 -15 5 -5 -3 -15 3 -22 15 -16 26 -28 26 -28 0
0 -12 7 -20 16 -20 15 0 44 -23 44 -34 0 -3 -11 -6 -25 -6 -20 0 -30 11 -57
66 -32 64 -53 82 -53 47 0 -9 -6 -18 -13 -21 -6 -2 -12 1 -12 7 0 6 -7 11 -15
11 -8 0 -15 5 -15 12 0 6 -7 3 -16 -8 -8 -10 -13 -13 -9 -6 3 7 0 12 -8 12
-19 0 -30 56 -16 82 13 25 5 35 -16 18 -12 -10 -16 -9 -21 3 -8 22 -1 50 14
55 7 2 12 -5 12 -17 0 -17 6 -21 36 -21 32 0 35 -2 29 -22 -6 -19 -5 -21 6
-10 11 10 18 7 36 -15 13 -14 26 -24 29 -21 12 13 -11 83 -34 105 -36 33 -40
101 -5 71 12 -10 18 -9 29 7 13 17 19 14 15 -8 -1 -5 2 -7 6 -4 46 24 91 41
102 38 24 -5 72 21 67 35 -3 8 1 14 8 14 8 0 16 -5 18 -11 6 -19 48 0 48 21 0
15 9 20 48 23 38 3 43 5 24 12 -32 11 -24 36 18 57 41 20 101 25 82 6z m-702
-28 c0 -5 -4 -10 -10 -10 -5 0 -10 5 -10 10 0 6 5 10 10 10 6 0 10 -4 10 -10z
m987 -6 c2 -6 -3 -11 -12 -11 -8 0 -15 7 -15 15 0 15 22 12 27 -4z m-2398 -54
c0 -10 -3 -8 -9 5 -12 27 -12 43 0 25 5 -8 9 -22 9 -30z m729 23 c-10 -2 -18
-11 -18 -19 0 -8 -4 -14 -9 -14 -5 0 -16 -3 -24 -6 -8 -3 -17 2 -21 13 -4 9
-4 15 -1 11 4 -3 18 0 33 8 15 8 34 13 42 13 11 -1 10 -3 -2 -6z m718 -21 c-4
-3 -14 2 -24 12 -16 18 -16 18 6 6 13 -6 21 -14 18 -18z m-1494 -7 c4 -16 1
-25 -8 -25 -17 0 -25 15 -18 34 9 24 21 19 26 -9z m1463 -15 c3 -5 1 -10 -4
-10 -6 0 -11 5 -11 10 0 6 2 10 4 10 3 0 8 -4 11 -10z m889 -5 c3 -8 1 -15 -4
-15 -6 0 -10 7 -10 15 0 8 2 15 4 15 2 0 6 -7 10 -15z m-1664 -55 c0 -5 -4
-10 -10 -10 -5 0 -10 5 -10 10 0 6 5 10 10 10 6 0 10 -4 10 -10z m85 0 c3 -5
-1 -10 -9 -10 -9 0 -16 5 -16 10 0 6 4 10 9 10 6 0 13 -4 16 -10z m932 4 c-3
-3 -12 -4 -19 -1 -8 3 -5 6 6 6 11 1 17 -2 13 -5z m-1047 -30 c0 -16 -16 -19
-25 -4 -8 13 4 32 16 25 5 -4 9 -13 9 -21z m974 13 c16 -12 16 -13 -1 -28 -25
-22 -51 -30 -58 -19 -4 6 3 10 14 10 12 0 21 5 21 10 0 6 -9 10 -20 10 -11 0
-20 4 -20 9 0 5 10 7 22 3 14 -3 19 -2 14 6 -10 16 6 15 28 -1z m-1620 -36 c3
-5 -3 -20 -14 -32 -15 -19 -19 -21 -20 -7 0 37 21 61 34 39z m1516 -21 c0 -10
-4 -21 -9 -24 -10 -7 -23 33 -15 46 8 13 24 -1 24 -22z m-1690 5 c0 -8 -4 -15
-9 -15 -5 0 -7 -9 -4 -20 3 -11 0 -20 -6 -20 -6 0 -11 -5 -11 -11 0 -6 9 -8
21 -4 14 5 25 2 30 -6 14 -22 10 -49 -7 -49 -8 0 -12 -5 -8 -11 4 -7 22 -9 48
-5 33 6 39 5 29 -5 -7 -7 -13 -21 -13 -32 0 -10 -5 -15 -10 -12 -6 4 -8 11 -5
16 4 5 2 9 -4 9 -5 0 -13 -5 -16 -10 -3 -6 -17 -7 -30 -4 -29 7 -65 -20 -40
-30 28 -10 17 -29 -12 -21 -33 8 -55 24 -48 35 3 4 -1 10 -8 13 -15 6 -11 67
4 67 5 0 9 8 9 18 0 10 6 24 13 31 10 11 10 14 0 18 -23 8 -14 39 15 50 40 16
62 15 62 -2z m2543 0 c-3 -9 -8 -14 -10 -11 -3 3 -2 9 2 15 9 16 15 13 8 -4z
m562 -55 c3 -5 -1 -10 -9 -10 -9 0 -16 5 -16 10 0 6 4 10 9 10 6 0 13 -4 16
-10z m-2002 -29 c12 -20 14 -32 6 -36 -5 -4 -13 -4 -16 -1 -4 3 -1 6 5 6 7 0
3 9 -8 20 -11 11 -20 25 -20 30 0 19 16 10 33 -19z m1283 -8 c-11 -11 -17 4
-9 23 7 18 8 18 11 1 2 -10 1 -21 -2 -24z m57 14 c13 -5 17 -15 15 -34 -2 -22
-9 -29 -30 -31 -25 -3 -28 0 -28 27 0 36 11 66 19 54 3 -5 14 -12 24 -16z
m113 -4 c-10 -10 -19 5 -10 18 6 11 8 11 12 0 2 -7 1 -15 -2 -18z m30 -5 c-7
-35 -22 -56 -32 -45 -4 3 1 13 10 23 10 9 14 24 11 35 -4 11 -2 19 6 19 8 0 9
-10 5 -32z m-2402 -4 c9 -25 7 -34 -8 -34 -11 0 -13 -9 -9 -36 l6 -36 -26 23
c-15 12 -27 30 -27 39 0 9 -5 21 -12 28 -9 9 -8 12 5 12 9 0 17 5 17 10 0 16
47 11 54 -6z m862 -23 c-3 -5 1 -11 9 -15 8 -3 15 -14 15 -24 0 -10 5 -23 12
-30 9 -9 9 -15 0 -24 -9 -9 -15 -8 -27 8 -8 10 -15 27 -15 37 0 9 -5 17 -10
17 -7 0 -7 6 0 20 6 11 13 20 16 20 3 0 3 -4 0 -9z m94 -35 c0 -15 -18 -31
-26 -23 -7 7 7 37 17 37 5 0 9 -6 9 -14z m1258 -24 c2 -7 -2 -10 -12 -6 -9 3
-16 11 -16 16 0 13 23 5 28 -10z m-2171 -24 c-3 -8 -6 -5 -6 6 -1 11 2 17 5
13 3 -3 4 -12 1 -19z m2240 8 c-3 -8 -3 -17 0 -20 4 -3 7 -19 7 -36 1 -22 -4
-30 -16 -30 -10 0 -18 -7 -18 -17 0 -9 -3 -13 -7 -9 -13 12 -11 35 3 47 8 6
14 20 14 29 0 21 10 50 17 50 3 0 3 -6 0 -14z m-2280 -18 c-3 -8 -6 -5 -6 6
-1 11 2 17 5 13 3 -3 4 -12 1 -19z m-47 -25 c0 -9 3 -14 6 -10 4 3 13 0 20 -8
16 -16 19 -75 4 -75 -5 0 -10 9 -10 19 0 12 -7 18 -17 17 -14 -1 -19 8 -21 37
-2 21 1 37 7 37 6 0 11 -7 11 -17z m784 -46 c-7 -22 -7 -22 15 -2 19 16 24 17
31 5 8 -13 10 -12 10 2 0 17 17 34 26 25 13 -13 12 -53 -2 -68 -9 -10 -13 -23
-9 -29 5 -8 11 -5 21 7 20 27 19 -6 -2 -36 -16 -23 -16 -23 7 -17 17 4 15 2
-6 -8 -20 -9 -32 -11 -36 -4 -4 6 -18 11 -33 11 -30 0 -35 21 -8 36 16 10 14
11 -20 15 -13 1 -20 48 -11 79 2 9 9 15 14 11 5 -3 7 -15 3 -27z m-34 -8 c0
-27 -3 -30 -27 -27 -27 3 -36 23 -10 23 6 0 15 8 19 18 11 26 18 21 18 -14z
m1425 -39 c-6 -63 -20 -91 -41 -83 -13 5 -12 9 5 27 26 28 26 36 1 36 -11 0
-20 7 -20 15 0 8 9 15 19 15 11 0 23 9 26 20 11 35 15 22 10 -30z m-1269 13
c-10 -10 -19 5 -10 18 6 11 8 11 12 0 2 -7 1 -15 -2 -18z m42 -10 c-8 -10 -18
-26 -21 -36 -4 -10 -11 -16 -16 -12 -14 8 -1 36 24 57 25 20 34 14 13 -9z
m-968 7 c0 -5 -4 -10 -10 -10 -5 0 -10 5 -10 10 0 6 5 10 10 10 6 0 10 -4 10
-10z m2230 -10 c0 -5 -4 -10 -9 -10 -6 0 -13 5 -16 10 -3 6 1 10 9 10 9 0 16
-4 16 -10z m37 -12 c-3 -8 -6 -5 -6 6 -1 11 2 17 5 13 3 -3 4 -12 1 -19z m-17
-21 c0 -8 -9 -22 -20 -32 -17 -16 -20 -16 -20 -2 0 26 11 47 26 47 8 0 14 -6
14 -13z m-2350 -19 c26 -28 26 -41 -1 -33 -18 6 -20 4 -14 -16 6 -18 4 -21
-10 -16 -9 4 -19 7 -21 7 -2 0 -4 8 -4 18 0 10 -5 23 -12 30 -9 9 -7 12 10 12
12 0 22 5 22 10 0 15 7 12 30 -12z m3090 12 c0 -5 -5 -10 -11 -10 -5 0 -7 5
-4 10 3 6 8 10 11 10 2 0 4 -4 4 -10z m-3040 -14 c0 -3 -4 -8 -10 -11 -5 -3
-10 -1 -10 4 0 6 5 11 10 11 6 0 10 -2 10 -4z m52 -8 c-7 -7 -12 -19 -12 -27
0 -10 7 -8 25 9 21 20 27 21 38 10 10 -10 9 -12 -7 -6 -13 5 -17 2 -13 -9 4
-8 -3 -21 -16 -30 -24 -17 -51 -20 -42 -5 3 6 -1 10 -9 10 -9 0 -16 5 -16 10
0 14 37 50 52 50 9 0 9 -3 0 -12z m-202 -15 c2 -2 -2 -8 -10 -13 -17 -10 -15
-12 28 -34 39 -20 33 -39 -11 -34 -17 2 -32 -2 -34 -9 -4 -12 31 -28 57 -26 8
1 3 -3 -12 -10 -16 -6 -28 -18 -28 -26 0 -17 -57 -48 -67 -37 -4 3 -1 18 6 32
9 22 8 29 -9 51 -26 33 -25 41 5 49 27 7 35 24 11 24 -11 0 -12 5 -3 25 10 19
17 23 37 18 14 -3 27 -8 30 -10z m280 -52 c-7 -15 -20 -21 -43 -20 l-32 1 33
14 c18 8 36 22 39 31 4 10 8 12 10 6 3 -7 -1 -21 -7 -32z m1940 -1 c0 -15 -7
-20 -26 -20 l-26 0 23 20 c30 24 29 24 29 0z m41 -16 c12 -14 11 -16 -5 -13
-11 2 -21 10 -24 17 -5 17 13 15 29 -4z m-1261 -4 c-8 -5 -19 -10 -25 -10 -5
0 -3 5 5 10 8 5 20 10 25 10 6 0 3 -5 -5 -10z m-1252 -75 c7 -6 -12 -35 -24
-35 -7 0 -17 -7 -22 -16 -6 -11 -12 -13 -16 -6 -3 6 -2 13 4 17 5 3 7 17 4 31
-6 23 -4 25 22 18 16 -4 30 -8 32 -9z m32 -5 c0 -5 -4 -10 -10 -10 -5 0 -10 5
-10 10 0 6 5 10 10 10 6 0 10 -4 10 -10z m110 -25 c14 -16 10 -18 -14 -9 -9 3
-16 10 -16 15 0 14 16 11 30 -6z m250 -9 c5 -13 6 -34 3 -47 -6 -22 -7 -22
-14 -3 -7 16 -8 17 -8 2 -1 -10 -8 -18 -16 -18 -7 0 -19 -8 -24 -17 -9 -15
-10 -13 -11 14 0 40 9 63 25 63 7 0 15 7 19 15 8 21 15 19 26 -9z m66 -48 l0
-71 -28 34 c-32 38 -35 51 -11 42 13 -5 15 -2 10 17 -6 22 7 50 22 50 4 0 7
-32 7 -72z m-592 33 c3 -5 -1 -14 -8 -20 -16 -13 -32 2 -21 19 8 12 22 13 29
1z m116 -16 c0 -14 -4 -25 -10 -25 -11 0 -14 33 -3 43 11 11 13 8 13 -18z
m216 -17 c-4 -23 -3 -28 3 -18 6 8 13 12 16 8 7 -6 -67 -88 -80 -88 -4 0 -2 8
6 18 24 29 39 61 39 80 0 18 8 32 18 32 2 0 2 -15 -2 -32z m-276 2 c0 -5 -6
-10 -12 -11 -10 0 -10 -2 0 -6 21 -8 13 -23 -13 -23 -33 0 -31 -7 15 -58 44
-49 49 -68 21 -77 -11 -3 -21 -16 -23 -27 -5 -33 -21 -31 -45 5 -24 34 -30 52
-14 43 5 -3 11 3 14 14 3 10 1 20 -5 22 -5 2 -6 13 0 28 7 18 5 31 -6 47 -13
21 -13 23 2 23 9 0 19 7 22 15 7 17 44 21 44 5z m1678 -25 c-3 -3 -9 2 -12 12
-6 14 -5 15 5 6 7 -7 10 -15 7 -18z m-1078 -55 c-6 -12 -14 -19 -17 -16 -4 3
0 18 8 32 7 14 15 21 17 15 2 -5 -2 -20 -8 -31z m-175 -20 c-3 -5 -2 -10 4
-10 5 0 13 5 16 10 5 8 11 7 21 -1 12 -10 10 -14 -12 -25 -19 -10 -30 -11 -40
-3 -10 8 -16 4 -27 -17 l-14 -27 -5 32 c-3 23 -1 31 8 27 7 -3 18 2 24 10 14
16 35 19 25 4z m1315 -20 c0 -5 -5 -10 -11 -10 -5 0 -7 5 -4 10 3 6 8 10 11
10 2 0 4 -4 4 -10z m14 -35 c-9 -14 -21 -22 -26 -19 -5 3 -1 14 9 24 26 27 36
24 17 -5z m613 3 c-6 -22 -5 -22 8 -4 8 11 17 18 19 15 3 -2 -4 -15 -14 -29
-17 -22 -19 -23 -25 -7 -7 18 0 47 11 47 3 0 4 -10 1 -22z m-487 -23 c0 -7 -9
-11 -23 -8 -13 3 -24 10 -24 17 0 8 9 11 24 8 13 -2 23 -10 23 -17z m-1406 0
c8 -9 13 -22 10 -30 -5 -12 -10 -10 -25 9 -10 13 -19 27 -19 30 0 11 19 6 34
-9z m457 -18 c-1 -12 -15 -9 -19 4 -3 6 1 10 8 8 6 -3 11 -8 11 -12z m-341
-19 c0 -19 -2 -20 -10 -8 -13 19 -13 30 0 30 6 0 10 -10 10 -22z m-143 -10
c-3 -8 -6 -5 -6 6 -1 11 2 17 5 13 3 -3 4 -12 1 -19z m1311 4 c2 -7 -3 -12
-12 -12 -9 0 -16 7 -16 16 0 17 22 14 28 -4z m122 8 c0 -5 -5 -10 -11 -10 -5
0 -7 5 -4 10 3 6 8 10 11 10 2 0 4 -4 4 -10z m-970 -61 c0 -44 -15 -59 -35
-33 -13 17 -12 63 2 87 11 18 33 -18 33 -54z m1510 42 c0 -5 -7 -11 -15 -15
-9 -3 -15 0 -15 9 0 8 7 15 15 15 8 0 15 -4 15 -9z m-2336 -7 c18 -7 22 -44 5
-44 -7 0 -8 -11 -4 -30 4 -19 3 -30 -4 -30 -6 0 -11 -7 -11 -15 0 -9 -9 -15
-21 -15 -15 0 -19 4 -15 16 3 9 6 33 6 55 0 21 5 39 10 39 6 0 10 -8 10 -17 0
-13 3 -14 12 -5 9 9 9 15 0 24 -22 22 -16 33 12 22z m-96 -12 c21 -6 33 -23
15 -21 -4 0 -10 -7 -13 -16 -4 -13 -10 -10 -28 15 -23 31 -19 34 26 22z m1935
-4 c6 -19 -3 -38 -20 -38 -8 0 -12 4 -8 9 3 5 1 12 -5 16 -17 10 -11 25 9 25
11 0 21 -6 24 -12z m45 -11 c-1 -2 3 -11 11 -20 8 -11 9 -17 3 -17 -14 0 -34
35 -25 44 7 6 17 1 11 -7z m472 9 c0 -2 -7 -7 -16 -10 -8 -3 -12 -2 -9 4 6 10
25 14 25 6z m-1934 -42 c-4 -9 -9 -15 -11 -12 -3 3 -3 13 1 22 4 9 9 15 11 12
3 -3 3 -13 -1 -22z m1304 10 c0 -8 -5 -12 -10 -9 -6 4 -8 11 -5 16 9 14 15 11
15 -7z m140 2 c0 -3 -4 -8 -10 -11 -5 -3 -10 -1 -10 4 0 6 5 11 10 11 6 0 10
-2 10 -4z m-1510 -27 c0 -6 -4 -7 -10 -4 -5 3 -10 11 -10 16 0 6 5 7 10 4 6
-3 10 -11 10 -16z m1420 0 c0 -5 -4 -9 -10 -9 -5 0 -10 7 -10 16 0 8 5 12 10
9 6 -3 10 -10 10 -16z m578 5 c17 -5 21 -11 16 -27 -5 -17 -3 -19 17 -14 22 6
23 5 6 -8 -12 -8 -14 -15 -7 -20 13 -8 3 -25 -16 -25 -8 0 -14 10 -14 23 -1
21 -1 21 -15 3 -17 -23 -32 -14 -40 24 -10 47 2 57 53 44z m-505 -22 c16 -18
15 -19 -20 -30 -27 -8 -40 -8 -50 0 -23 19 -14 29 22 22 34 -6 50 8 23 19 -8
3 -8 6 -2 6 6 1 18 -7 27 -17z m427 -18 c0 -16 -6 -24 -17 -24 -16 0 -16 2 -3
10 13 9 13 12 -3 24 -13 10 -15 15 -5 19 20 7 28 -2 28 -29z m-1420 -29 c0
-19 -4 -37 -10 -40 -6 -4 -10 6 -10 22 0 22 -2 25 -10 13 -5 -8 -10 -27 -10
-42 0 -15 -4 -29 -9 -33 -19 -11 -27 26 -17 70 9 36 14 44 28 39 10 -3 18 0
18 6 0 6 5 8 10 5 6 -3 10 -21 10 -40z m1217 19 c-3 -3 -12 -4 -19 -1 -8 3 -5
6 6 6 11 1 17 -2 13 -5z m-1647 -40 c0 -13 -4 -24 -10 -24 -5 0 -10 14 -10 31
0 17 4 28 10 24 6 -3 10 -17 10 -31z m1408 -2 c2 -7 -3 -12 -12 -12 -9 0 -16
7 -16 16 0 17 22 14 28 -4z m252 8 c0 -5 -4 -10 -9 -10 -6 0 -13 5 -16 10 -3
6 1 10 9 10 9 0 16 -4 16 -10z m-193 -42 c-3 -8 -6 -5 -6 6 -1 11 2 17 5 13 3
-3 4 -12 1 -19z m173 12 c0 -5 -7 -7 -15 -4 -8 4 -15 8 -15 10 0 2 7 4 15 4 8
0 15 -4 15 -10z m324 -16 c3 -8 1 -14 -4 -14 -6 0 -10 -5 -10 -10 0 -6 12 -8
28 -5 25 6 26 5 9 -8 -12 -10 -15 -17 -7 -22 8 -5 7 -12 -4 -24 -9 -10 -13
-21 -9 -24 3 -4 -8 -7 -25 -7 -17 0 -38 7 -46 16 -22 22 -20 24 13 14 24 -7
30 -5 34 10 4 14 -5 24 -32 37 l-36 18 28 3 c19 2 27 9 27 22 0 22 25 17 34
-6z m-529 6 c3 -5 1 -10 -4 -10 -6 0 -11 5 -11 10 0 6 2 10 4 10 3 0 8 -4 11
-10z m120 0 c3 -5 -1 -10 -10 -10 -9 0 -13 5 -10 10 3 6 8 10 10 10 2 0 7 -4
10 -10z m35 -15 c0 -8 -7 -15 -15 -15 -13 0 -14 3 -3 15 16 18 18 18 18 0z
m-929 -26 l22 -22 -26 5 c-31 6 -52 -5 -42 -22 5 -8 10 -9 18 -1 20 20 53 12
68 -16 22 -45 22 -46 9 -38 -9 6 -9 3 0 -15 10 -20 10 -22 -3 -17 -22 8 -10
-27 20 -58 22 -21 25 -30 19 -69 -9 -55 -27 -74 -50 -51 -18 19 -20 34 -7 68
8 22 7 24 -10 20 -10 -3 -19 0 -19 6 0 6 -6 11 -14 11 -10 0 -14 10 -14 29 1
17 5 29 11 28 21 -4 16 21 -5 27 -16 4 -28 0 -40 -14 -16 -20 -65 -29 -53 -10
3 5 -6 12 -20 16 -26 7 -32 18 -14 29 12 8 -22 45 -41 45 -6 0 -8 5 -4 11 3 6
19 9 35 5 17 -3 29 -1 29 5 0 6 5 7 11 3 6 -3 14 -2 18 3 10 15 54 43 68 43 7
0 23 -10 34 -21z m-261 -34 c0 -8 5 -15 10 -15 6 0 10 -10 10 -22 1 -35 32
-67 61 -61 22 4 26 -1 36 -39 19 -67 28 -76 52 -54 16 15 21 16 21 5 1 -10 4
-9 11 4 10 17 12 17 40 0 29 -17 40 -55 19 -68 -6 -4 -8 -15 -5 -26 4 -11 2
-19 -4 -19 -6 0 -11 -11 -11 -24 0 -14 -4 -28 -10 -31 -13 -8 -13 -45 -1 -45
5 0 12 6 15 13 3 6 4 -1 2 -18 -3 -35 -41 -61 -63 -43 -9 7 -13 7 -13 -1 0 -6
-12 -11 -26 -11 -14 0 -23 4 -19 10 3 6 1 10 -4 10 -6 0 -11 -6 -11 -14 0 -7
-7 -19 -15 -26 -12 -10 -15 -10 -15 0 0 10 -3 10 -15 0 -11 -9 -12 -15 -5 -20
16 -10 1 -63 -15 -56 -8 3 -16 -1 -19 -9 -4 -11 -13 -12 -43 -3 -51 14 -62 33
-63 107 l0 63 -23 -15 c-13 -8 -28 -12 -34 -9 -5 4 -13 47 -17 96 -6 84 -5 91
16 113 13 14 22 28 22 31 -1 4 2 6 7 5 31 -9 34 -6 34 35 0 23 3 42 6 42 4 0
10 17 14 37 9 48 15 59 26 42 6 -10 9 -8 9 9 0 12 5 22 10 22 6 0 10 -7 10
-15z m1166 -32 c-11 -11 -17 4 -9 23 7 18 8 18 11 1 2 -10 1 -21 -2 -24z m61
-5 c-3 -8 -6 -5 -6 6 -1 11 2 17 5 13 3 -3 4 -12 1 -19z m202 -30 c1 -5 -3 -8
-9 -8 -5 0 -7 -7 -4 -15 9 -23 -23 -19 -36 4 -5 11 -10 32 -10 46 l0 27 29
-24 c17 -13 30 -26 30 -30z m77 4 c-15 -3 -16 -6 -5 -13 11 -7 10 -9 -4 -9
-11 0 -16 -5 -12 -12 4 -7 -1 -4 -9 6 -30 37 -11 64 29 43 19 -11 19 -11 1
-15z m-2611 8 c3 -5 -1 -10 -9 -10 -9 0 -16 5 -16 10 0 6 4 10 9 10 6 0 13 -4
16 -10z m484 -46 c-12 -13 -30 -24 -38 -24 -14 1 -14 3 2 14 9 7 17 16 17 20
0 3 8 14 18 24 27 28 29 -5 1 -34z m43 6 c-18 -32 -30 -33 -13 -2 6 11 8 29 4
39 -6 15 -5 16 9 5 15 -12 15 -15 0 -42z m1902 33 c3 -7 1 -13 -5 -13 -6 0 -7
-4 -4 -10 3 -5 0 -10 -9 -10 -8 0 -16 -6 -19 -12 -8 -22 -40 17 -33 39 7 23
62 28 70 6z m-104 -2 c0 -6 -4 -13 -10 -16 -5 -3 -10 1 -10 9 0 9 5 16 10 16
6 0 10 -4 10 -9z m-2163 -102 c19 -16 16 -29 -7 -29 -12 0 -32 -7 -45 -16 -23
-15 -25 -15 -25 0 0 9 -6 19 -14 22 -12 5 -12 9 2 25 18 21 62 20 89 -2z m161
5 c6 -11 11 -13 16 -5 7 11 46 16 46 5 0 -3 -16 -21 -36 -39 -34 -32 -36 -33
-30 -10 7 26 0 31 -24 15 -22 -14 -32 11 -13 32 20 22 29 23 41 2z m95 -14
c-17 -16 -33 -35 -36 -42 -2 -7 -8 -10 -12 -5 -9 8 53 76 70 77 6 0 -4 -13
-22 -30z m3047 -10 c0 -5 -2 -10 -4 -10 -3 0 -8 5 -11 10 -3 6 -1 10 4 10 6 0
11 -4 11 -10z m-1975 -50 c-9 -17 -20 -28 -26 -24 -6 4 -5 14 4 27 7 12 17 29
22 37 16 27 17 -8 0 -40z m152 34 c-3 -3 -12 -4 -19 -1 -8 3 -5 6 6 6 11 1 17
-2 13 -5z m-1451 -23 c5 -5 23 -11 39 -13 l30 -4 -29 -14 c-23 -11 -30 -12
-34 -2 -2 6 -9 12 -17 12 -7 0 -18 7 -25 15 -10 12 -9 15 7 15 10 0 23 -4 29
-9z m1464 -16 c16 -19 0 -19 -26 0 -16 12 -16 14 -3 15 9 0 22 -7 29 -15z
m-1493 -18 c18 -13 6 -27 -19 -22 -27 6 -42 20 -34 34 7 10 32 5 53 -12z m218
3 c-3 -5 -10 -10 -16 -10 -5 0 -9 5 -9 10 0 6 7 10 16 10 8 0 12 -4 9 -10z
m-163 -45 c6 -28 3 -30 -31 -11 -23 13 -23 14 -5 24 27 16 31 15 36 -13z
m1288 16 c0 -6 -5 -13 -10 -16 -6 -4 -7 -11 -4 -17 4 -6 0 -14 -7 -19 -10 -7
-11 -11 -2 -17 9 -5 9 -11 0 -22 -14 -17 -57 -25 -57 -10 0 6 7 10 15 10 17 0
20 16 5 25 -6 4 -4 12 5 21 8 9 15 21 15 29 0 12 13 22 33 24 4 1 7 -3 7 -8z
m-1243 -37 c-3 -3 -12 -4 -19 -1 -8 3 -5 6 6 6 11 1 17 -2 13 -5z m1293 -80
c0 -2 -9 -4 -21 -4 -11 0 -18 4 -14 10 5 8 35 3 35 -6z m-125 -61 c-3 -21 -11
-42 -17 -48 -7 -7 -9 -2 -4 15 3 14 6 35 6 48 0 12 5 22 11 22 8 0 9 -13 4
-37z m-52 -34 c-3 -10 -11 -24 -19 -30 -8 -6 -14 -19 -14 -27 0 -12 3 -13 12
-4 15 15 42 16 33 1 -4 -5 -18 -14 -31 -19 -13 -5 -24 -16 -24 -25 0 -8 -7
-15 -16 -15 -9 0 -22 -7 -29 -17 -11 -14 -13 -13 -17 9 -4 22 -1 26 20 26 31
0 47 23 26 39 -14 10 -13 12 4 17 22 7 39 39 23 44 -5 2 -2 11 7 21 19 19 32
9 25 -20z m-186 -31 c-3 -7 -5 -2 -5 12 0 14 2 19 5 13 2 -7 2 -19 0 -25z
m2423 -718 c0 -5 -4 -10 -10 -10 -5 0 -10 5 -10 10 0 6 5 10 10 10 6 0 10 -4
10 -10z m-2180 -240 c0 -5 -2 -10 -4 -10 -3 0 -8 5 -11 10 -3 6 -1 10 4 10 6
0 11 -4 11 -10z m1749 -66 c-14 -17 -104 -20 -93 -3 3 6 15 8 26 6 24 -7 50 2
43 13 -3 5 4 6 15 3 16 -4 18 -8 9 -19z m-525 0 c9 -24 2 -26 -12 -4 -7 11 -8
20 -3 20 5 0 12 -7 15 -16z m-1575 -41 c2 -2 2 -5 -1 -8 -6 -6 -58 40 -58 51
0 4 12 -3 28 -17 15 -13 29 -25 31 -26z m2020 -17 c0 -7 -2 -6 -6 2 -2 6 -9
10 -14 6 -5 -3 -9 2 -9 12 0 13 3 14 15 4 8 -7 15 -18 14 -24z m-239 4 c0 -5
-4 -10 -10 -10 -5 0 -10 5 -10 10 0 6 5 10 10 10 6 0 10 -4 10 -10z"/>
<path d="M3010 4292 c6 -13 14 -21 18 -18 3 4 -2 14 -12 24 -18 16 -18 16 -6
-6z"/>
<path d="M3200 4353 c0 -6 28 -33 33 -33 3 0 3 8 0 18 -4 15 -33 28 -33 15z"/>
<path d="M3430 4168 c0 -9 5 -20 10 -23 13 -8 13 5 0 25 -8 13 -10 13 -10 -2z"/>
<path d="M3200 4101 c0 -5 5 -13 10 -16 6 -3 10 -2 10 4 0 5 -4 13 -10 16 -5
3 -10 2 -10 -4z"/>
<path d="M2970 3940 c0 -5 7 -10 15 -10 8 0 15 5 15 10 0 6 -7 10 -15 10 -8 0
-15 -4 -15 -10z"/>
<path d="M2805 3319 c-4 -6 -5 -13 -2 -16 7 -7 27 6 27 18 0 12 -17 12 -25 -2z"/>
<path d="M3480 3293 c0 -5 5 -15 10 -23 8 -12 10 -11 10 8 0 12 -4 22 -10 22
-5 0 -10 -3 -10 -7z"/>
<path d="M4205 2957 c17 -8 32 -13 34 -11 7 7 -3 12 -34 19 l-30 6 30 -14z"/>
<path d="M3916 2849 c-13 -16 -21 -18 -29 -10 -18 18 -28 12 -15 -9 14 -22 48
-27 48 -7 0 6 5 4 11 -6 10 -18 11 -18 24 0 7 10 11 22 8 27 -3 4 1 12 8 17
10 6 7 9 -11 9 -14 0 -34 -10 -44 -21z"/>
<path d="M4003 2843 c-24 -5 -32 -23 -10 -24 6 0 2 -5 -11 -11 -27 -13 -22
-41 15 -75 30 -28 37 -29 23 -3 -11 20 -6 40 10 40 4 0 11 -11 14 -25 4 -15
13 -25 24 -25 12 0 13 3 5 8 -10 6 -10 17 -3 42 12 43 13 40 -6 40 -9 0 -18 9
-21 20 -3 11 -8 19 -12 19 -3 -1 -16 -4 -28 -6z"/>
<path d="M4204 2842 c9 -15 48 -23 43 -9 -2 7 -14 14 -26 15 -13 2 -21 -1 -17
-6z"/>
<path d="M3965 2690 c-3 -5 -1 -10 4 -10 6 0 11 5 11 10 0 6 -2 10 -4 10 -3 0
-8 -4 -11 -10z"/>
<path d="M2690 1689 c0 -5 5 -7 10 -4 6 3 10 8 10 11 0 2 -4 4 -10 4 -5 0 -10
-5 -10 -11z"/>
<path d="M2688 1633 c6 -2 18 -2 25 0 6 3 1 5 -13 5 -14 0 -19 -2 -12 -5z"/>
<path d="M2487 1598 c-15 -12 -14 -13 13 -15 21 -2 30 2 30 12 0 18 -20 19
-43 3z"/>
<path d="M2727 1494 c-13 -13 -7 -24 14 -24 11 0 19 5 17 12 -5 14 -22 21 -31
12z"/>
<path d="M2530 1472 c0 -7 7 -20 15 -28 9 -9 15 -11 15 -4 0 6 4 9 9 6 5 -3 7
-15 4 -25 -3 -10 0 -22 6 -25 17 -11 13 43 -4 60 -11 11 -15 12 -15 3 0 -7 -6
-4 -15 7 -9 12 -14 14 -15 6z"/>
<path d="M2724 1401 c-28 -22 -38 -56 -24 -78 9 -15 10 -14 5 10 -3 15 -1 27
4 27 9 0 45 49 39 55 -2 2 -13 -4 -24 -14z"/>
<path d="M2400 1396 c0 -2 7 -9 15 -16 12 -10 15 -10 15 4 0 9 -7 16 -15 16
-8 0 -15 -2 -15 -4z"/>
<path d="M2442 1370 c-13 -21 -6 -25 18 -10 10 6 12 12 5 19 -7 7 -14 4 -23
-9z"/>
<path d="M2670 1379 c0 -5 5 -7 10 -4 6 3 10 8 10 11 0 2 -4 4 -10 4 -5 0 -10
-5 -10 -11z"/>
<path d="M2535 1341 c-3 -12 -11 -21 -16 -21 -5 0 -9 -12 -9 -26 0 -40 24 -23
31 22 8 43 4 57 -6 25z"/>
<path d="M2717 1283 c-10 -9 -9 -23 2 -23 5 0 11 7 15 15 5 15 -5 20 -17 8z"/>
<path d="M2510 1230 c0 -11 6 -20 14 -20 9 0 12 7 9 20 -3 11 -9 20 -14 20 -5
0 -9 -9 -9 -20z"/>
<path d="M3901 1614 c0 -11 3 -14 6 -6 3 7 2 16 -1 19 -3 4 -6 -2 -5 -13z"/>
<path d="M2744 5405 c-12 -8 -24 -12 -27 -8 -3 3 -14 2 -24 -2 -16 -7 -15 -9
7 -15 14 -4 24 -13 22 -20 -3 -14 15 -30 36 -30 6 0 12 5 12 10 0 6 -6 9 -12
8 -7 -2 -14 8 -16 20 -3 20 0 23 17 17 14 -4 23 0 31 15 9 17 8 20 -7 20 -10
0 -28 -7 -39 -15z"/>
<path d="M2610 5371 c-11 -22 -8 -24 28 -15 12 4 22 11 22 17 0 6 -3 7 -7 4
-3 -4 -12 -2 -19 4 -9 8 -15 5 -24 -10z"/>
<path d="M2545 5336 c-18 -13 -19 -15 -3 -33 14 -15 14 -20 2 -30 -7 -7 -17
-13 -22 -13 -5 0 -9 -11 -9 -25 0 -17 5 -25 17 -25 19 0 34 26 24 42 -3 5 2
18 11 28 9 10 14 23 11 29 -4 5 -2 12 4 16 5 3 10 -3 10 -14 0 -12 5 -21 10
-21 6 0 10 7 10 15 0 8 8 15 18 16 9 0 1 7 -18 14 -45 17 -43 17 -65 1z"/>
<path d="M2690 5341 c-14 -5 -14 -8 2 -23 19 -19 29 -12 19 13 -3 10 -12 14
-21 10z"/>
<path d="M2431 5299 c-17 -10 -31 -21 -31 -24 0 -4 5 -3 11 1 8 4 9 0 4 -15
-9 -29 0 -26 33 9 16 16 32 27 35 23 4 -3 7 -2 7 4 0 20 -27 21 -59 2z"/>
<path d="M2781 5274 c-12 -27 -7 -64 10 -64 5 0 9 6 9 14 0 8 5 18 10 21 7 4
9 -9 6 -37 -3 -24 -3 -35 0 -25 3 10 11 16 18 14 24 -10 5 50 -20 62 -15 7
-22 16 -18 26 10 25 -2 17 -15 -11z"/>
<path d="M2690 5275 c0 0 4 -15 9 -33 11 -37 5 -43 -10 -9 -9 21 -9 21 -3 -3
3 -14 8 -41 11 -61 4 -31 2 -37 -19 -44 -12 -4 -25 -8 -28 -10 -3 -1 -13 -5
-22 -9 -19 -9 -24 -41 -8 -51 6 -3 10 2 10 11 0 10 3 15 6 11 3 -3 17 -2 29 3
21 8 24 5 30 -21 4 -16 10 -29 15 -29 5 0 10 -7 12 -15 2 -10 8 -12 17 -6 12
8 13 16 2 51 -6 22 -16 38 -21 35 -18 -11 -10 60 10 98 23 42 25 51 10 42 -7
-4 -9 2 -5 18 6 22 4 25 -19 23 -14 0 -26 -1 -26 -1z m40 -223 c0 -15 -2 -15
-10 -2 -13 20 -13 33 0 25 6 -3 10 -14 10 -23z"/>
<path d="M2931 5273 c0 -6 -4 -20 -7 -30 -5 -14 -4 -15 5 -7 7 7 11 20 8 30
-3 11 -5 14 -6 7z"/>
<path d="M4442 5210 c0 -19 2 -27 5 -17 2 9 2 25 0 35 -3 9 -5 1 -5 -18z"/>
<path d="M2380 5211 c0 -6 5 -13 10 -16 6 -3 10 1 10 9 0 9 -4 16 -10 16 -5 0
-10 -4 -10 -9z"/>
<path d="M3110 5207 c0 -8 7 -20 15 -27 12 -10 15 -10 15 3 0 8 -7 20 -15 27
-12 10 -15 10 -15 -3z"/>
<path d="M2754 5195 c-3 -8 -4 -20 -2 -27 3 -7 7 -1 10 15 6 29 1 36 -8 12z"/>
<path d="M2255 5181 c-3 -5 -1 -12 5 -16 5 -3 10 1 10 9 0 18 -6 21 -15 7z"/>
<path d="M3120 5130 c0 -16 7 -20 30 -20 28 0 29 2 18 20 -7 11 -21 20 -30 20
-11 0 -18 -8 -18 -20z"/>
<path d="M2507 5124 c-8 -8 2 -55 14 -68 6 -6 9 -3 9 8 0 10 5 14 11 11 7 -5
9 3 7 21 -3 27 -26 43 -41 28z"/>
<path d="M2260 5104 c0 -8 5 -12 10 -9 6 3 10 10 10 16 0 5 -4 9 -10 9 -5 0
-10 -7 -10 -16z"/>
<path d="M2350 5102 c0 -7 5 -10 10 -7 6 3 13 -1 16 -9 3 -9 10 -16 15 -16 4
0 6 7 2 16 -3 9 0 20 8 25 9 6 3 8 -18 6 -19 -1 -33 -7 -33 -15z"/>
<path d="M2405 5039 c-4 -6 -5 -12 -2 -15 2 -3 7 2 10 11 7 17 1 20 -8 4z"/>
<path d="M2820 5010 c0 -5 5 -10 10 -10 6 0 10 5 10 10 0 6 -4 10 -10 10 -5 0
-10 -4 -10 -10z"/>
<path d="M2690 4991 c0 -5 5 -13 10 -16 6 -3 10 -2 10 4 0 5 -4 13 -10 16 -5
3 -10 2 -10 -4z"/>
<path d="M3085 4970 c20 -23 29 -21 19 4 -3 9 -13 16 -22 16 -13 0 -12 -3 3
-20z"/>
<path d="M2383 4940 c0 -17 4 -30 9 -30 11 0 11 47 0 54 -5 3 -9 -8 -9 -24z"/>
<path d="M2507 4939 c-8 -29 0 -41 23 -34 18 6 32 -14 26 -37 -1 -7 -1 -10 1
-5 3 4 9 4 14 1 7 -4 8 8 3 33 -9 49 -13 56 -32 48 -8 -3 -19 -1 -22 6 -5 6
-10 2 -13 -12z"/>
<path d="M2690 4939 c-8 -4 -24 -10 -35 -14 -16 -5 -17 -8 -5 -16 13 -7 13
-10 1 -18 -20 -13 -1 -18 47 -13 27 3 42 9 42 18 0 8 5 14 11 14 5 0 7 5 4 10
-3 6 -15 10 -25 10 -10 0 -20 4 -22 9 -1 5 -10 5 -18 0z"/>
<path d="M2591 4814 c0 -11 3 -14 6 -6 3 7 2 16 -1 19 -3 4 -6 -2 -5 -13z"/>
<path d="M2776 4793 c3 -16 10 -41 16 -56 6 -15 8 -30 5 -33 -3 -3 -8 4 -12
15 -7 22 -25 29 -25 10 0 -5 -4 -7 -10 -4 -6 4 -10 -12 -10 -39 0 -25 5 -46
10 -46 6 0 10 5 10 11 0 5 4 8 9 5 5 -3 8 -14 6 -24 -1 -9 0 -11 2 -4 3 6 8
12 13 12 5 0 7 6 4 13 -8 22 29 16 48 -7 10 -12 17 -15 18 -8 0 6 -5 12 -11
12 -8 0 -8 5 1 15 9 10 9 15 1 16 -6 1 -16 2 -23 3 -16 1 -29 63 -22 104 4 27
2 32 -16 32 -17 0 -19 -4 -14 -27z"/>
<path d="M2470 4740 c-16 -38 -11 -43 16 -21 18 14 19 20 9 34 -11 16 -14 14
-25 -13z"/>
<path d="M2390 4735 c-7 -9 -6 -14 4 -18 13 -5 36 10 36 23 0 11 -30 7 -40 -5z"/>
<path d="M2663 4722 c-20 -24 -23 -25 -35 -11 -15 19 -78 34 -78 19 0 -6 5
-10 11 -10 8 0 8 -4 0 -14 -10 -12 -5 -14 29 -10 35 3 40 1 40 -16 0 -11 5
-20 10 -20 6 0 10 7 10 15 0 8 11 22 25 31 14 9 25 23 25 30 0 21 -13 17 -37
-14z"/>
<path d="M2641 4600 c-1 -30 -3 -68 -4 -85 -2 -24 2 -31 21 -33 12 -2 22 -9
22 -17 0 -7 11 -20 25 -29 14 -9 25 -13 24 -9 -3 21 3 21 22 2 12 -12 27 -32
34 -46 12 -23 13 -23 18 -3 3 11 1 18 -3 15 -5 -3 -14 4 -21 16 -9 18 -7 25
15 46 22 20 24 26 13 44 -12 19 -12 19 -22 -4 -5 -13 -16 -22 -22 -20 -7 3
-13 0 -13 -7 0 -17 -38 7 -45 29 -3 10 -1 30 4 44 9 23 7 28 -18 43 -15 9 -33
28 -38 43 -10 23 -11 20 -12 -29z m49 -92 c0 -15 -4 -16 -25 -6 -26 12 -30 19
-17 32 4 4 8 12 8 17 3 23 6 23 19 -1 8 -14 14 -33 15 -42z"/>
<path d="M2470 4585 c7 -9 15 -13 17 -11 7 7 -7 26 -19 26 -6 0 -6 -6 2 -15z"/>
<path d="M2016 4581 c-3 -4 -31 -11 -62 -15 -91 -11 -149 -52 -185 -130 -37
-82 -19 -175 49 -242 74 -74 113 -71 184 16 24 30 54 56 65 58 12 2 27 10 34
18 10 12 8 17 -7 29 -18 13 -31 87 -36 209 -1 29 -33 72 -42 57z m-218 -226
c0 -30 -5 -52 -9 -49 -16 10 -10 104 7 104 1 0 2 -25 2 -55z m72 -15 c0 -5
-10 -10 -22 -9 -22 0 -22 1 -3 9 11 5 21 9 23 9 1 1 2 -3 2 -9z"/>
<path d="M1675 4550 c-3 -5 -2 -10 4 -10 5 0 13 5 16 10 3 6 2 10 -4 10 -5 0
-13 -4 -16 -10z"/>
<path d="M2142 4528 c-19 -19 -14 -26 13 -20 14 2 24 9 22 15 -5 16 -21 19
-35 5z"/>
<path d="M2305 4520 c-9 -14 1 -27 25 -33 26 -7 26 14 0 30 -12 8 -21 9 -25 3z"/>
<path d="M2375 4520 c-3 -5 1 -10 10 -10 9 0 13 5 10 10 -3 6 -8 10 -10 10 -2
0 -7 -4 -10 -10z"/>
<path d="M2560 4500 c0 -13 5 -18 15 -14 8 4 15 10 15 14 0 4 -7 10 -15 14
-10 4 -15 -1 -15 -14z"/>
<path d="M2448 4504 c17 -8 15 -44 -3 -44 -19 0 -19 -16 0 -24 8 -3 21 1 29
10 10 9 17 11 21 4 5 -8 11 -7 21 1 11 9 14 8 14 -5 0 -10 5 -14 10 -11 29 18
-12 58 -70 69 -19 3 -29 3 -22 0z"/>
<path d="M1602 4460 c0 -14 2 -19 5 -12 2 6 2 18 0 25 -3 6 -5 1 -5 -13z"/>
<path d="M2635 4431 c-3 -5 -1 -12 5 -16 5 -3 10 1 10 9 0 18 -6 21 -15 7z"/>
<path d="M2645 4390 c-3 -5 -1 -10 4 -10 6 0 11 5 11 10 0 6 -2 10 -4 10 -3 0
-8 -4 -11 -10z"/>
<path d="M2380 4376 c0 -8 5 -18 10 -21 6 -3 10 1 10 9 0 8 -4 18 -10 21 -5 3
-10 -1 -10 -9z"/>
<path d="M2590 4354 c0 -20 17 -26 24 -8 8 21 8 21 -9 21 -8 0 -15 -6 -15 -13z"/>
<path d="M2285 4310 c-3 -5 -1 -10 4 -10 6 0 11 5 11 10 0 6 -2 10 -4 10 -3 0
-8 -4 -11 -10z"/>
<path d="M2595 4300 c-5 -17 -12 -20 -31 -16 -14 4 -24 2 -24 -4 0 -5 4 -10 9
-10 5 0 11 -9 14 -20 3 -11 2 -20 -2 -20 -5 0 -8 -15 -8 -32 0 -18 2 -25 4
-16 9 35 113 63 113 31 0 -22 35 -14 45 10 6 12 20 23 33 25 23 3 23 4 6 23
-21 24 -44 25 -38 2 4 -14 -2 -18 -23 -20 -37 -2 -61 12 -65 39 -4 29 -25 34
-33 8z"/>
<path d="M2210 4300 c0 -5 -8 -7 -17 -3 -12 4 -15 3 -8 -4 6 -6 23 -14 40 -17
29 -7 29 -7 11 13 -21 23 -26 25 -26 11z"/>
<path d="M2470 4303 c0 -4 5 -15 10 -23 8 -13 10 -13 10 2 0 9 -4 20 -10 23
-5 3 -10 3 -10 -2z"/>
<path d="M2370 4290 c-13 -9 -13 -12 3 -21 14 -8 16 -14 6 -25 -9 -11 -8 -14
5 -14 9 0 16 5 16 11 0 7 9 9 21 6 43 -11 51 4 15 29 -39 27 -45 28 -66 14z"/>
<path d="M2305 4161 c3 -17 2 -32 -4 -36 -16 -10 -13 -23 7 -28 15 -3 15 -5
-3 -12 -37 -16 -62 -55 -35 -55 6 0 10 -11 10 -25 0 -31 3 -31 33 -2 13 12 32
27 43 34 14 9 16 14 7 20 -17 12 -43 77 -43 108 0 14 -5 25 -11 25 -7 0 -8
-11 -4 -29z"/>
<path d="M2514 4145 c9 -13 16 -33 16 -44 0 -26 -32 -45 -48 -29 -9 9 -12 9
-12 1 0 -7 4 -14 9 -17 5 -3 7 -15 4 -25 -4 -15 0 -20 16 -18 12 1 21 6 21 12
1 5 10 -1 20 -14 11 -13 20 -18 20 -11 0 9 3 10 14 1 10 -9 16 -8 25 3 7 8 19
12 27 9 8 -3 14 0 14 5 0 6 -12 12 -27 14 -19 2 -28 8 -27 20 1 10 -7 20 -17
23 -11 4 -19 11 -19 17 0 19 -32 78 -42 78 -6 0 -3 -11 6 -25z"/>
<path d="M2210 4120 c0 -5 5 -10 11 -10 5 0 7 5 4 10 -3 6 -8 10 -11 10 -2 0
-4 -4 -4 -10z"/>
<path d="M2127 4099 c-11 -39 -8 -47 13 -42 30 8 32 18 12 44 l-19 22 -6 -24z"/>
<path d="M1956 4094 c-4 -10 -1 -14 6 -12 15 5 23 28 10 28 -5 0 -13 -7 -16
-16z"/>
<path d="M2611 4066 c-8 -10 -5 -16 15 -24 32 -15 34 -15 34 3 0 22 -35 38
-49 21z"/>
<path d="M2390 4031 c0 -6 5 -13 10 -16 6 -3 10 1 10 9 0 9 -4 16 -10 16 -5 0
-10 -4 -10 -9z"/>
<path d="M2178 3963 c5 -24 6 -25 12 -8 8 21 4 35 -9 35 -5 0 -6 -12 -3 -27z"/>
<path d="M2655 3970 c-3 -5 1 -22 9 -37 9 -16 18 -36 22 -45 9 -26 24 -22 24
7 0 14 -6 25 -13 25 -16 0 -40 38 -32 50 4 6 4 10 1 10 -3 0 -8 -4 -11 -10z"/>
<path d="M2465 3950 c3 -5 8 -10 11 -10 2 0 4 5 4 10 0 6 -5 10 -11 10 -5 0
-7 -4 -4 -10z"/>
<path d="M1900 3928 c0 -18 -2 -20 -10 -8 -7 11 -12 12 -21 3 -17 -17 -2 -33
30 -33 25 0 27 -3 23 -35 -2 -19 -11 -40 -20 -47 -14 -11 -15 -10 -8 7 5 11
10 29 13 40 3 16 1 15 -11 -5 -8 -14 -15 -42 -16 -63 0 -33 2 -37 18 -28 16 9
18 6 14 -22 l-4 -32 28 43 c43 64 47 51 8 -24 -19 -37 -32 -69 -30 -72 8 -7
36 18 36 33 0 18 35 46 51 40 8 -3 20 4 27 16 11 17 11 24 -1 37 -8 10 -12 23
-9 31 3 10 -4 12 -31 9 -33 -4 -37 -1 -42 24 -7 31 2 68 16 68 5 0 9 5 9 10 0
6 -9 10 -19 10 -11 0 -23 5 -26 10 -11 18 -25 11 -25 -12z"/>
<path d="M2047 3913 c-13 -12 -7 -23 13 -23 11 0 20 7 20 15 0 15 -21 21 -33
8z"/>
<path d="M2668 3863 c-4 -16 -14 -23 -30 -23 -21 -1 -22 -1 -4 -11 23 -14 50
9 44 37 -3 17 -5 16 -10 -3z"/>
<path d="M2203 3833 c-7 -3 -13 -11 -13 -19 0 -10 6 -11 24 -4 13 5 27 6 30 3
3 -4 6 -2 6 4 0 12 -29 22 -47 16z"/>
<path d="M2336 3745 c-4 -22 -10 -47 -12 -57 -3 -9 -1 -19 5 -22 5 -4 2 -26
-9 -56 -10 -28 -15 -50 -11 -50 15 0 42 63 40 93 -2 18 -1 37 2 42 3 6 2 28
-1 50 l-6 40 -8 -40z"/>
<path d="M2402 3700 c0 -14 2 -19 5 -12 2 6 2 18 0 25 -3 6 -5 1 -5 -13z"/>
<path d="M2276 3684 c-5 -13 -9 -14 -21 -4 -12 10 -14 4 -17 -36 -2 -27 -8
-49 -16 -52 -7 -2 -10 2 -6 11 3 8 1 18 -4 21 -5 3 -12 -4 -15 -15 -3 -12 -10
-18 -15 -15 -13 8 -42 -3 -42 -15 0 -5 12 -9 26 -9 14 0 22 -4 19 -10 -3 -5 0
-7 9 -4 8 3 16 -2 19 -13 4 -17 5 -17 6 1 0 10 9 25 18 32 10 7 18 18 19 26 0
7 2 20 2 28 1 9 14 22 28 31 21 13 23 17 11 27 -12 10 -16 9 -21 -4z"/>
<path d="M2086 3682 c-3 -6 -1 -14 5 -17 15 -10 25 3 12 16 -7 7 -13 7 -17 1z"/>
<path d="M2621 3664 c0 -11 3 -14 6 -6 3 7 2 16 -1 19 -3 4 -6 -2 -5 -13z"/>
<path d="M1802 3630 c0 -14 2 -19 5 -12 2 6 2 18 0 25 -3 6 -5 1 -5 -13z"/>
<path d="M1889 3608 c-1 -7 -1 -32 1 -55 1 -37 -2 -44 -24 -54 -14 -7 -26 -17
-25 -23 3 -26 -2 -47 -9 -42 -4 3 -7 -14 -6 -37 3 -58 3 -57 15 -57 7 0 9 9 6
22 -7 24 17 88 32 88 6 0 11 6 11 14 0 7 9 24 19 37 21 27 26 100 8 111 -17
11 -27 10 -28 -4z"/>
<path d="M2029 3612 c0 -4 -2 -16 -4 -26 -2 -10 2 -25 10 -32 11 -11 14 -9 21
14 4 15 8 31 8 36 1 10 -34 18 -35 8z"/>
<path d="M2360 3604 c0 -5 7 -19 15 -30 8 -10 15 -14 15 -8 0 5 -7 19 -15 30
-8 10 -15 14 -15 8z"/>
<path d="M1800 3571 c-13 -26 -13 -31 5 -31 9 0 15 9 15 25 0 30 -6 32 -20 6z"/>
<path d="M1837 3553 c-4 -3 -7 -13 -7 -22 1 -13 3 -13 11 2 11 19 8 33 -4 20z"/>
<path d="M2345 3460 c3 -5 8 -10 11 -10 2 0 4 5 4 10 0 6 -5 10 -11 10 -5 0
-7 -4 -4 -10z"/>
<path d="M1747 3443 c-10 -9 -8 -66 2 -82 7 -11 11 -10 19 6 8 14 7 27 -3 46
-7 14 -11 28 -7 31 3 3 3 6 0 6 -2 0 -8 -3 -11 -7z"/>
<path d="M2265 3440 c-3 -5 1 -10 9 -10 9 0 16 5 16 10 0 6 -4 10 -9 10 -6 0
-13 -4 -16 -10z"/>
<path d="M2268 3392 c-21 -4 -22 -9 -4 -41 l13 -24 5 34 c3 19 5 34 4 35 0 0
-9 -1 -18 -4z"/>
<path d="M2360 3390 c0 -5 5 -10 11 -10 5 0 7 5 4 10 -3 6 -8 10 -11 10 -2 0
-4 -4 -4 -10z"/>
<path d="M1600 3375 c0 -8 4 -15 9 -15 5 0 11 7 15 15 3 9 0 15 -9 15 -8 0
-15 -7 -15 -15z"/>
<path d="M1305 3360 c-11 -4 -26 -5 -33 -3 -8 4 -10 0 -6 -11 3 -9 14 -15 23
-14 12 2 17 -6 19 -32 2 -19 10 -42 18 -51 8 -9 12 -24 8 -33 -3 -9 -1 -16 6
-16 7 0 6 -6 -4 -16 -20 -20 -20 -53 0 -82 24 -34 13 -44 -24 -20 -24 15 -31
25 -27 39 4 11 4 19 1 19 -10 0 -42 -36 -49 -54 -4 -9 -11 -15 -16 -11 -13 8
-23 -11 -25 -48 -2 -18 -6 -40 -10 -49 -6 -12 -2 -17 16 -20 19 -2 22 -8 20
-30 -4 -32 14 -38 23 -8 3 11 11 20 16 20 12 0 11 -24 -2 -37 -7 -7 -6 -15 5
-26 18 -18 21 -37 6 -37 -5 0 -10 -10 -10 -23 0 -30 -22 -60 -46 -63 -35 -5
-53 -10 -60 -17 -12 -12 -34 -8 -34 6 0 6 12 23 25 36 14 13 25 32 25 42 0 18
-4 20 -30 23 -6 1 -16 -10 -23 -24 -7 -14 -20 -24 -28 -23 -9 2 -14 -6 -14
-22 0 -14 6 -25 13 -25 18 0 15 -18 -5 -24 -10 -3 -57 -4 -105 -1 -78 3 -88 2
-93 -15 -4 -12 6 -36 28 -67 18 -26 32 -54 29 -61 -5 -15 3 -15 28 -2 12 6 16
17 13 30 -8 31 41 27 70 -6 12 -14 32 -30 45 -35 27 -11 20 -29 -11 -29 -22
-1 -22 -1 -2 -12 31 -18 51 -19 82 -3 28 15 28 15 5 21 -23 7 -23 7 7 21 32
16 49 43 26 43 -7 0 -17 -4 -20 -10 -9 -14 -37 -12 -33 2 3 7 17 15 33 20 21
5 31 3 41 -10 10 -14 16 -14 38 -4 15 7 37 12 50 12 24 0 36 18 56 84 7 21 35
62 64 92 28 30 64 69 79 88 15 19 48 42 72 52 25 9 45 23 45 30 0 8 24 28 54
44 53 30 72 52 60 71 -3 6 7 21 23 35 21 18 24 24 11 24 -9 0 -23 -8 -30 -17
-7 -10 -21 -24 -30 -32 -16 -12 -18 -11 -18 11 0 14 18 46 45 77 43 50 56 81
36 81 -6 0 -13 -4 -16 -10 -12 -19 -36 -11 -35 13 3 36 1 40 -15 27 -8 -7 -15
-23 -15 -35 0 -12 7 -28 15 -35 31 -26 7 -78 -30 -63 -12 4 -16 3 -11 -5 7
-11 -34 -84 -54 -97 -17 -10 -11 11 10 38 16 20 20 39 19 74 -3 56 -16 70 -40
42 -12 -14 -19 -16 -24 -8 -4 6 -4 14 1 18 11 7 12 105 2 108 -16 5 -38 -10
-38 -24 0 -13 2 -13 17 -2 15 13 16 11 10 -11 -4 -14 -10 -44 -13 -67 -5 -33
-11 -43 -31 -48 -29 -7 -46 2 -39 21 3 9 -1 14 -13 14 -10 0 -22 8 -25 18 -13
32 -51 82 -63 82 -7 0 -20 11 -28 24 -20 29 -34 36 -60 26z m100 -120 c3 -6
-1 -13 -10 -16 -19 -8 -30 0 -20 15 8 14 22 14 30 1z m-75 -201 c6 -10 7 -24
4 -32 -3 -8 -1 -18 5 -22 18 -10 14 -85 -4 -85 -9 0 -15 -9 -15 -22 0 -34 -12
-12 -16 27 -1 23 -12 46 -28 62 -28 28 -33 43 -14 43 9 0 9 3 0 12 -18 18 -14
31 8 25 16 -4 18 -2 10 13 -6 10 -10 21 -10 25 0 10 51 -28 60 -46z m37 -51
c-3 -8 -6 -5 -6 6 -1 11 2 17 5 13 3 -3 4 -12 1 -19z"/>
<path d="M1315 2940 c-3 -5 -1 -10 4 -10 6 0 11 5 11 10 0 6 -2 10 -4 10 -3 0
-8 -4 -11 -10z"/>
<path d="M1443 3345 c-14 -11 -15 -16 -3 -44 14 -36 20 -34 35 12 6 20 19 34
35 38 20 6 18 7 -13 6 -21 0 -45 -6 -54 -12z"/>
<path d="M1217 3316 c-3 -8 -2 -18 3 -21 13 -8 20 9 11 24 -6 10 -10 9 -14 -3z"/>
<path d="M1790 3290 c0 -5 5 -10 10 -10 6 0 10 5 10 10 0 6 -4 10 -10 10 -5 0
-10 -4 -10 -10z"/>
<path d="M2210 3279 c0 -5 5 -7 10 -4 6 3 10 8 10 11 0 2 -4 4 -10 4 -5 0 -10
-5 -10 -11z"/>
<path d="M1210 3248 c0 -10 -4 -18 -10 -18 -5 0 -10 -6 -10 -14 0 -17 32 -15
38 2 2 6 -1 19 -7 29 -10 17 -10 17 -11 1z"/>
<path d="M2511 3244 c0 -11 3 -14 6 -6 3 7 2 16 -1 19 -3 4 -6 -2 -5 -13z"/>
<path d="M1256 3184 c-9 -24 -7 -31 9 -31 9 0 15 10 15 24 0 26 -15 31 -24 7z"/>
<path d="M2185 3140 c-3 -5 -1 -10 4 -10 6 0 11 5 11 10 0 6 -2 10 -4 10 -3 0
-8 -4 -11 -10z"/>
<path d="M2468 3068 c0 -13 -2 -28 -2 -35 -1 -7 -6 -17 -13 -24 -11 -11 -7
-39 6 -39 4 0 13 16 21 35 11 27 18 34 32 29 12 -4 18 0 18 11 0 11 -5 15 -15
11 -10 -4 -15 1 -15 14 0 28 -30 25 -32 -2z"/>
<path d="M1820 2961 c-15 -30 -13 -46 5 -31 8 6 19 8 26 4 7 -4 10 -2 7 7 -3
8 -10 13 -16 12 -6 -2 -9 4 -6 12 9 22 -3 18 -16 -4z"/>
<path d="M1200 2870 c0 -11 -4 -20 -10 -20 -5 0 -10 -7 -10 -16 0 -23 17 -8
28 26 7 18 7 30 1 30 -5 0 -9 -9 -9 -20z"/>
<path d="M2705 2790 c3 -5 8 -10 11 -10 2 0 4 5 4 10 0 6 -5 10 -11 10 -5 0
-7 -4 -4 -10z"/>
<path d="M1600 2695 c0 -5 5 -17 10 -25 5 -8 10 -10 10 -5 0 6 -5 17 -10 25
-5 8 -10 11 -10 5z"/>
<path d="M1635 2653 c4 -32 0 -54 -11 -71 -19 -28 -16 -32 13 -21 15 5 21 14
17 24 -4 8 0 22 7 31 10 13 10 17 0 24 -8 4 -11 12 -7 18 7 12 -3 42 -15 42
-4 0 -6 -21 -4 -47z"/>
<path d="M2455 2680 c3 -5 10 -10 16 -10 5 0 9 5 9 10 0 6 -7 10 -16 10 -8 0
-12 -4 -9 -10z"/>
<path d="M326 2632 c-3 -6 -1 -14 5 -17 15 -10 25 3 12 16 -7 7 -13 7 -17 1z"/>
<path d="M1322 2598 c-7 -7 -12 -25 -12 -41 0 -27 2 -28 33 -22 40 9 47 13 47
28 0 13 -35 47 -48 47 -4 0 -13 -5 -20 -12z"/>
<path d="M1000 2580 c0 -5 5 -10 11 -10 5 0 7 5 4 10 -3 6 -8 10 -11 10 -2 0
-4 -4 -4 -10z"/>
<path d="M1264 2570 c-30 -12 -40 -30 -17 -30 23 0 59 25 47 32 -5 3 -19 2
-30 -2z"/>
<path d="M1772 2550 c2 -6 7 -11 11 -11 4 1 17 1 29 1 27 0 21 5 -15 14 -20 5
-28 3 -25 -4z"/>
<path d="M2542 2540 c0 -14 2 -19 5 -12 2 6 2 18 0 25 -3 6 -5 1 -5 -13z"/>
<path d="M1511 2534 c0 -11 3 -14 6 -6 3 7 2 16 -1 19 -3 4 -6 -2 -5 -13z"/>
<path d="M1018 2330 c-11 -214 -14 -460 -7 -460 19 0 24 73 19 330 l-5 285 -7
-155z"/>
<path d="M2532 2415 c1 -14 5 -25 9 -25 4 0 9 11 11 25 4 17 1 25 -8 25 -9 0
-13 -10 -12 -25z"/>
<path d="M1371 2354 c0 -11 3 -14 6 -6 3 7 2 16 -1 19 -3 4 -6 -2 -5 -13z"/>
<path d="M1366 2308 c-3 -13 -1 -27 4 -32 7 -7 10 1 10 22 0 37 -5 41 -14 10z"/>
<path d="M2800 2270 c0 -5 7 -7 15 -4 8 4 15 8 15 10 0 2 -7 4 -15 4 -8 0 -15
-4 -15 -10z"/>
<path d="M1320 2086 c0 -2 7 -7 16 -10 8 -3 12 -2 9 4 -6 10 -25 14 -25 6z"/>
<path d="M1226 1964 c-9 -24 -7 -28 9 -14 17 14 20 30 6 30 -5 0 -12 -7 -15
-16z"/>
<path d="M1080 1874 c0 -8 5 -12 10 -9 6 3 10 10 10 16 0 5 -4 9 -10 9 -5 0
-10 -7 -10 -16z"/>
<path d="M982 1593 c-119 -305 -204 -523 -252 -653 -23 -63 -46 -124 -51 -135
-49 -113 -140 -377 -135 -390 2 -7 -1 -16 -9 -19 -8 -3 -19 -24 -26 -48 -7
-24 -16 -47 -21 -53 -13 -14 -9 -28 6 -22 8 3 13 -1 12 -11 0 -9 -10 -19 -21
-22 -11 -4 -25 -22 -33 -45 -8 -22 -17 -47 -20 -55 -3 -8 -6 -27 -6 -41 -1
-21 3 -25 19 -21 20 5 20 5 2 -16 -11 -11 -24 -19 -31 -16 -7 3 -18 -7 -24
-21 -7 -15 -8 -25 -2 -25 6 0 10 7 10 15 0 8 5 15 11 15 6 0 9 -7 5 -15 -5
-13 13 -15 123 -15 l128 0 17 63 c10 34 26 87 36 117 11 30 39 118 63 195 145
457 337 1048 380 1169 19 54 19 59 4 68 -11 6 -17 22 -17 43 0 19 -4 35 -10
35 -5 0 -10 12 -10 28 -1 30 -21 62 -39 62 -6 0 -11 5 -11 10 0 37 -26 -16
-98 -197z m-452 -1269 c0 -8 -4 -12 -10 -9 -5 3 -10 10 -10 16 0 5 5 9 10 9 6
0 10 -7 10 -16z m-73 -186 c-3 -8 -6 -5 -6 6 -1 11 2 17 5 13 3 -3 4 -12 1
-19z m3 -33 c0 -8 -4 -15 -10 -15 -5 0 -10 7 -10 15 0 8 5 15 10 15 6 0 10 -7
10 -15z"/>
<path d="M520 1720 c0 -5 5 -10 10 -10 6 0 10 5 10 10 0 6 -4 10 -10 10 -5 0
-10 -4 -10 -10z"/>
<path d="M680 1651 c0 -25 6 -27 13 -6 4 8 2 17 -3 20 -6 4 -10 -3 -10 -14z"/>
<path d="M1205 1609 c-4 -6 -5 -12 -2 -15 2 -3 7 2 10 11 7 17 1 20 -8 4z"/>
<path d="M1355 1530 c-3 -5 3 -10 14 -10 12 0 21 5 21 10 0 6 -6 10 -14 10 -8
0 -18 -4 -21 -10z"/>
<path d="M1345 1470 c3 -5 8 -10 11 -10 2 0 4 5 4 10 0 6 -5 10 -11 10 -5 0
-7 -4 -4 -10z"/>
<path d="M5267 543 c-3 -5 0 -19 8 -29 15 -20 18 -11 6 20 -4 11 -10 15 -14 9z"/>
<path d="M5230 484 c0 -17 22 -14 28 4 2 7 -3 12 -12 12 -9 0 -16 -7 -16 -16z"/>
<path d="M4928 343 c6 -2 18 -2 25 0 6 3 1 5 -13 5 -14 0 -19 -2 -12 -5z"/>
<path d="M2712 140 c0 -14 2 -19 5 -12 2 6 2 18 0 25 -3 6 -5 1 -5 -13z"/>
<path d="M4752 148 c5 -15 28 -23 28 -10 0 5 -7 13 -16 16 -10 4 -14 1 -12 -6z"/>
<path d="M3790 141 c0 -5 5 -13 10 -16 6 -3 10 -2 10 4 0 5 -4 13 -10 16 -5 3
-10 2 -10 -4z"/>
<path d="M2740 120 c0 -5 5 -10 10 -10 6 0 10 5 10 10 0 6 -4 10 -10 10 -5 0
-10 -4 -10 -10z"/>
<path d="M2320 50 c0 -5 5 -10 10 -10 6 0 10 5 10 10 0 6 -4 10 -10 10 -5 0
-10 -4 -10 -10z"/>
<path d="M4182 38 c5 -15 28 -23 28 -10 0 5 -7 13 -16 16 -10 4 -14 1 -12 -6z"/>
<path d="M2620 30 c0 -5 8 -10 18 -10 10 0 23 -5 30 -12 9 -9 12 -9 12 0 0 7
-12 17 -26 22 -32 12 -34 12 -34 0z"/>
<path d="M4390 25 c0 -16 16 -20 24 -6 3 5 -1 11 -9 15 -9 3 -15 0 -15 -9z"/>
</g>
</svg>
